<svg xmlns="http://www.w3.org/2000/svg" width="95" height="93" fill="none"><path fill="#000" d="M27.321 58.515h18.91c.627 0 1.138.516 1.138 1.151s-.51 1.152-1.139 1.152H27.321c-.628 0-1.14-.517-1.14-1.152s.512-1.151 1.14-1.151M92.124 30.63c-.018.024-.042.033-.06.057a1 1 0 0 1-.221.194c-.038.024-.075.052-.117.071a.9.9 0 0 1-.29.072c-.034.004-.062.023-.095.023-.009 0-.023-.004-.032-.004s-.014.004-.024.004c-5.925-.35-17.123 2.735-22.148 7.08l-.534.465c-4.055 3.52-10.181 8.838-15.792 9.539a9 9 0 0 1-1.106.071c-1.739 0-3.169-.516-4.556-1.019a33 33 0 0 0-1.205-.417 8.6 8.6 0 0 1-.464 1.839c5.105.583 9.164 1.843 12.047 3.763 3.707 2.469 4.486 5.33 4.486 7.297v21.582C62.013 87.835 50.927 93 36.776 93s-25.237-5.16-25.237-11.752V59.666c0-5.373 6.577-9.62 17.24-11.226a8.995 8.995 0 0 1 3.51-10.454 112 112 0 0 1-3.219-2.952 1 1 0 0 1-.197-.27l-.089-.185c-.895-1.834-3.276-6.706-3.914-10.8-.239-1.53.117-3.246.994-4.976-.774-.02-1.21-.123-1.598-.242-.305-.095-.488-.147-2.766.602-4.617 1.53-8.433 3.957-11.503 5.91-2.104 1.34-3.923 2.497-5.451 3-1.936.634-3.417.184-4.392-1.342a.97.97 0 0 1-.136-.71c.318-1.617 2.597-5.332 6.656-8.526 6.22-4.895 15.533-9.753 17.643-10.34.487-.2 1.776-.479 6.703-1.493C36.898 4.454 46.732 2.43 48.574 1.42 51.537-.195 56.75-.447 62.88.738c5.911 1.142 11.789 3.483 15.726 6.26 1.008.711 6.037 2.564 14.414 3.431.38.038.698.304.81.673 1.777 5.839 1.768 14.421-1.705 19.525zM30.176 45.488c0 3.895 3.13 7.06 6.984 7.06 3.61 0 6.59-2.79 6.947-6.35a43 43 0 0 1-1.913-.668c-1.64-.611-3.192-1.19-4.837-1.246a.96.96 0 0 1-.67-.313.97.97 0 0 1-.249-.701c.108-1.953.6-3.545 1.453-4.782-.244-.023-.483-.061-.726-.061-3.853 0-6.985 3.165-6.985 7.06zm11.039-9.526c2.47-.9 5.451-.753 8.338-.606.511.023.994.047 1.472.066 3.656-2.365 4.416-3.744 5.653-5.99.235-.426.506-.905.802-1.412-2.827-2.17-4.181-3.805-5.475-5.383-.333-.403-.675-.825-1.036-1.242-1.19-1.38-2.348-1.299-7.613-.687-.843.095-1.78.208-2.821.317-1.069.114-2.874 2.17-3.713 4.227-.51 1.252-.384 1.816-.323 1.887.16.061.31.16.417.293l.253.308c1.716 2.095 4.383 5.365 3.347 8.535.23-.114.46-.227.712-.317zm18.899 28.249c-3.745 4.27-12.67 7.203-23.338 7.203-10.673 0-19.593-2.938-23.338-7.203v17.031c0 5.327 10.687 9.829 23.338 9.829 12.65 0 23.338-4.502 23.338-9.829zM44.561 50.435c-1.593 2.427-4.317 4.033-7.406 4.033-3.164 0-5.943-1.687-7.514-4.218-9.862 1.375-16.209 5.033-16.209 9.412 0 5.327 10.687 9.828 23.338 9.828s23.338-4.501 23.338-9.828c0-3.744-4.11-8.094-15.552-9.231zm46.256-21.32c2.742-4.468 2.789-11.634 1.364-16.837-7.725-.863-13.21-2.663-14.673-3.697C69.596 2.994 54.92.132 49.464 3.113c-1.936 1.057-9.333 2.635-18.079 4.43-2.887.593-5.873 1.209-6.347 1.384a.7.7 0 0 1-.197.071c-1.5.365-10.687 5.038-17.01 10.014-3.605 2.838-5.372 5.781-5.84 7.008.388.418.927.57 1.959.228 1.303-.427 3.028-1.526 5.024-2.796 3.155-2.01 7.083-4.507 11.925-6.109 2.625-.872 3.103-.862 3.91-.616.304.095.764.228 2.277.119.3-.408.62-.81.975-1.204 1.927-2.146 6.943-4.525 11.372-6.625 2.39-1.132 4.655-2.203 5.33-2.767a.943.943 0 0 1 1.336.128.97.97 0 0 1-.127 1.35c-.863.72-3.01 1.74-5.733 3.029-3.839 1.82-9.098 4.312-10.771 6.174-2.03 2.265-3.028 4.654-2.728 6.55.595 3.805 2.962 8.657 3.74 10.25l.014.033c.431.412 1.964 1.857 3.628 3.298a8.8 8.8 0 0 1 3.028-.55c.357 0 .708.043 1.055.086 1.617-2.209-.258-4.867-2.517-7.62l-.117-.143c-.507-.28-1.205-.962-1.008-2.525.31-2.507 3.131-6.9 5.76-7.184 1.041-.114 1.97-.223 2.808-.318 5.363-.62 7.369-.853 9.258 1.332.375.436.726.867 1.069 1.28 1.382 1.686 2.69 3.278 5.821 5.582.042.033.07.076.103.113.047.048.094.086.127.143.033.052.052.108.075.165s.052.114.061.176c.014.061.005.118.005.18 0 .061.004.123-.005.185-.014.061-.042.118-.066.175-.018.047-.028.1-.056.147-.478.772-.844 1.44-1.2 2.085-1.317 2.389-2.269 4.118-6.548 6.838a.94.94 0 0 1-.54.147c-.585-.019-1.2-.052-1.794-.08-6.16-.313-10.327-.105-11.04 5.174 1.562.209 3.02.75 4.43 1.28.914.341 1.777.664 2.663.896.825.218 1.566.488 2.278.744 1.598.578 2.981 1.075 4.79.853 5.04-.63 10.908-5.72 14.784-9.09l.534-.464c5.278-4.573 16.416-7.724 22.917-7.554z"/></svg>