<svg xmlns="http://www.w3.org/2000/svg" width="74" height="77" fill="none"><path fill="#56A063" d="M68.463 52.697a7.36 7.36 0 0 0 2.892-2.638 8.06 8.06 0 0 0 1.234-3.843 8.16 8.16 0 0 0-.766-3.98 7.55 7.55 0 0 0-2.554-3.01 6.9 6.9 0 0 0-3.632-1.202 6.84 6.84 0 0 0-3.699.94 7.45 7.45 0 0 0-2.737 2.82 8.1 8.1 0 0 0-1.014 3.916c-3.456-5.878-5.662-14.816-6.471-19.494 5.098-6.028 5.972-11.259 5.857-14.467-.166-4.66-2.588-8.83-6.168-10.626-6.11-3.06-11.315 1.007-13.186 2.793-1.864-1.797-7.055-5.864-13.187-2.793-3.574 1.798-6.002 5.966-6.168 10.626-.112 3.123.712 8.163 5.466 13.99-2.637 8.62-5.031 15.729-8.142 20.279a9 9 0 0 0 .046-.9 8.6 8.6 0 0 0-1.068-4.166 7.9 7.9 0 0 0-2.91-3 7.24 7.24 0 0 0-3.933-.99 7.3 7.3 0 0 0-3.857 1.294 8 8 0 0 0-2.697 3.218 8.64 8.64 0 0 0-.781 4.238 8.5 8.5 0 0 0 1.353 4.071 7.8 7.8 0 0 0 3.108 2.762q-.388.166-.748.341a8.36 8.36 0 0 0-3.433 3.23A9.16 9.16 0 0 0 0 60.8v15.087c0 .281.104.55.29.749s.438.31.7.31a.96.96 0 0 0 .7-.31c.186-.199.29-.468.29-.749V60.801a6.93 6.93 0 0 1 .95-3.55 6.33 6.33 0 0 1 2.586-2.45 18.8 18.8 0 0 1 4.165-1.406c7.97-1.797 11.703-11.387 16.175-25.9a42 42 0 0 0 2.25 2.232c-2.982 12.87-6.44 22.057-9.5 25.23a1.1 1.1 0 0 0-.224.347 1.1 1.1 0 0 0-.078.412v20.172c-.006.143.015.286.062.42s.12.257.212.36a1 1 0 0 0 .326.242.94.94 0 0 0 .78 0 1 1 0 0 0 .326-.242 1.1 1.1 0 0 0 .211-.36c.047-.134.068-.277.062-.42v-19.74c4.204-4.76 7.652-17.092 9.515-24.94q1.065.898 2.268 1.797c-1.537 5.186-4.18 16.436-1.261 24.85v18.027q-.008.216.061.42c.047.133.12.256.212.36a1 1 0 0 0 .326.241.94.94 0 0 0 .78 0 1 1 0 0 0 .326-.242c.092-.103.164-.226.211-.36q.07-.203.062-.42V57.67a1.2 1.2 0 0 0-.065-.378c-2.733-7.612-.267-18.354 1.061-23.041a69 69 0 0 0 3.107 2.05c-1.471 5.724-3.647 17.441 1.947 20.486q.526.345 1.104.58c5.785 3.046 6.916 4.197 6.916 6.637v11.885c0 .281.105.55.29.749.186.198.438.31.7.31a.96.96 0 0 0 .7-.31c.186-.199.29-.468.29-.749V64.003c0-2.894-1.292-4.566-4.48-6.548a6.5 6.5 0 0 0 2.555-1.69 7.1 7.1 0 0 0 1.582-2.73 7.5 7.5 0 0 0 .28-3.196 7.3 7.3 0 0 0-1.081-2.996 6.75 6.75 0 0 0-2.216-2.167 6.26 6.26 0 0 0-2.888-.886 6.2 6.2 0 0 0-2.955.581 6.6 6.6 0 0 0-2.403 1.926c.162-2.981.774-6.356 1.602-9.567a64 64 0 0 0 7.06-4.916c.889 4.494 3.588 16.764 7.868 23.633v20.446c-.006.143.015.286.062.42q.072.203.211.36a1 1 0 0 0 .327.242.94.94 0 0 0 .779 0 1 1 0 0 0 .326-.242 1.1 1.1 0 0 0 .212-.36c.047-.134.068-.277.062-.42V55.121c0-.213-.06-.422-.173-.598-4.516-7.019-7.358-21.073-7.934-24.176a42 42 0 0 0 2.411-2.3c1.226 6.115 5.546 24.07 14.222 25.37.316.052 7.758 1.349 7.758 8.328v14.143c0 .281.104.55.29.749.185.198.437.31.7.31a.96.96 0 0 0 .7-.31c.186-.199.29-.468.29-.749V61.745c0-4.699-2.733-7.53-5.537-9.048m-3.068-12.563c1.035 0 2.046.328 2.906.943a5.53 5.53 0 0 1 1.927 2.508c.396 1.022.5 2.146.297 3.23a5.7 5.7 0 0 1-1.431 2.862 5.14 5.14 0 0 1-2.678 1.53 4.9 4.9 0 0 1-3.022-.318 5.3 5.3 0 0 1-2.348-2.059c-.574-.919-.881-2-.881-3.105.002-1.483.553-2.903 1.534-3.951.98-1.048 2.31-1.638 3.696-1.64m-62.452 4.98c0-1.196.331-2.365.952-3.36a5.75 5.75 0 0 1 2.538-2.226 5.3 5.3 0 0 1 3.268-.345 5.55 5.55 0 0 1 2.896 1.654 6.2 6.2 0 0 1 1.548 3.096 6.43 6.43 0 0 1-.322 3.492 6 6 0 0 1-2.084 2.713 5.4 5.4 0 0 1-3.143 1.017c-1.498-.002-2.935-.64-3.995-1.772s-1.656-2.668-1.658-4.27m39.313.775c.669 0 1.33.156 1.936.457a4.64 4.64 0 0 1 1.575 1.288 5 5 0 0 1 .92 1.878c.175.69.207 1.413.094 2.117a5.1 5.1 0 0 1-.751 1.962 4.7 4.7 0 0 1-1.455 1.44 4.4 4.4 0 0 1-1.888.65 4.3 4.3 0 0 1-1.968-.261l-.912-.477a4.85 4.85 0 0 1-1.843-2.405 5.2 5.2 0 0 1-.12-3.107 4.92 4.92 0 0 1 1.652-2.559 4.4 4.4 0 0 1 2.76-.983M46.04 29.01a1 1 0 0 0-.21.187 60 60 0 0 1-7.615 5.473 69 69 0 0 1-4.35-2.905 1 1 0 0 0-.145-.106c-3.18-2.33-5.6-4.594-7.433-6.74a1 1 0 0 0-.252-.297c-4.508-5.392-5.298-9.987-5.197-12.807.139-3.878 2.115-7.329 5.033-8.792a8.2 8.2 0 0 1 3.695-.898c4.455 0 7.747 3.765 7.92 3.965a1 1 0 0 0 .33.256.93.93 0 0 0 .798 0 1 1 0 0 0 .33-.254c.21-.253 5.408-6.176 11.618-3.064 2.918 1.462 4.894 4.914 5.033 8.792.103 2.894-.728 7.639-5.534 13.204a1 1 0 0 0-.241.281 39 39 0 0 1-3.78 3.71z"/><path fill="#56A063" d="M6.553 60.943a.96.96 0 0 0-.7.31c-.186.198-.29.467-.29.748v13.885c0 .28.104.55.29.749a.96.96 0 0 0 .7.31.96.96 0 0 0 .7-.31c.186-.199.29-.468.29-.749V62.001c0-.28-.104-.55-.29-.749a.96.96 0 0 0-.7-.31"/></svg>