<svg xmlns="http://www.w3.org/2000/svg" width="86" height="99" fill="none"><path fill="#000" d="M13.61 79.479a.87.87 0 0 1-.502-.16.85.85 0 0 1-.355-.793c.31-2.735.785-5.38 1.413-7.857.772-3.048 1.786-5.868 3.008-8.38a56 56 0 0 1 3.965-6.854.867.867 0 0 1 1.198-.233.853.853 0 0 1 .236 1.19 54 54 0 0 0-3.841 6.64c-1.964 4.037-3.333 8.79-4.07 14.145l18.393-8.603a7.05 7.05 0 0 1 5.17-.319 6.98 6.98 0 0 1 3.967 3.251q.268.474.455.983c.314.84.45 1.722.406 2.624a6.65 6.65 0 0 1-.683 2.684.866.866 0 0 1-1.154.397.854.854 0 0 1-.4-1.146 5 5 0 0 0 .509-2.01v-.01a4.8 4.8 0 0 0-.3-1.946q.001-.003-.004-.006a5 5 0 0 0-.338-.733l-.003-.003c-1.342-2.417-4.367-3.386-6.887-2.214l-19.814 9.271a.9.9 0 0 1-.37.082"/><path fill="#000" d="M7.115 95.383a7.06 7.06 0 0 1-3.547-.956A6.95 6.95 0 0 1 .112 88.91c-.18-2.495-.143-5.173.113-8.681.983-13.437 5.982-26.254 14.853-38.09 1.885-2.519 4.234-4.495 6.785-5.719a14.2 14.2 0 0 1 4.26-1.291 13.2 13.2 0 0 1 4.627.2l15.35 3.415a20.6 20.6 0 0 1 11.85 7.536.85.85 0 0 1-.164 1.203.866.866 0 0 1-1.212-.163 18.87 18.87 0 0 0-10.854-6.9c-15.344-3.417-15.348-3.417-15.351-3.417-4.985-1.112-10.185 1.193-13.907 6.16C7.79 54.733 2.905 67.244 1.946 80.352c-.253 3.424-.287 6.027-.113 8.437a5.24 5.24 0 0 0 2.602 4.156 5.29 5.29 0 0 0 4.927.217l20.675-9.66a.867.867 0 0 1 1.15.41.856.856 0 0 1-.413 1.142L10.1 94.715a7 7 0 0 1-2.985.668M42.07 35.497c-2.415 0-4.754-.468-6.96-1.397a17.9 17.9 0 0 1-5.681-3.803 17.7 17.7 0 0 1-3.831-5.64 17.5 17.5 0 0 1-1.407-6.908c0-2.397.471-4.719 1.407-6.909a17.7 17.7 0 0 1 3.831-5.64A17.9 17.9 0 0 1 42.069 0c2.414 0 4.753.468 6.96 1.397a17.9 17.9 0 0 1 5.68 3.803 17.7 17.7 0 0 1 3.832 5.64 17.5 17.5 0 0 1 1.407 6.909c0 2.396-.472 4.718-1.407 6.908a17.7 17.7 0 0 1-3.831 5.64 17.9 17.9 0 0 1-12.64 5.2m0-33.778c-8.906 0-16.148 7.19-16.148 16.03s7.242 16.03 16.147 16.03 16.147-7.19 16.147-16.03-7.245-16.03-16.147-16.03m.117 74.217a.87.87 0 0 1-.595-.234.853.853 0 0 1-.034-1.213l11.466-12.017a10.8 10.8 0 0 1 4.234-2.732 11 11 0 0 1 4.849-.552.859.859 0 1 1-.195 1.705 9.1 9.1 0 0 0-7.635 2.762L42.814 75.67a.88.88 0 0 1-.629.267"/><path fill="#000" d="M72.325 66.08a13.7 13.7 0 0 1-9.67-3.976 13.5 13.5 0 0 1-4.005-9.6c0-1.831.362-3.61 1.076-5.285a13.6 13.6 0 0 1 2.93-4.315 13.6 13.6 0 0 1 4.346-2.909 13.7 13.7 0 0 1 5.323-1.067 13.68 13.68 0 0 1 9.67 3.976 13.5 13.5 0 0 1 2.93 4.315A13.4 13.4 0 0 1 86 52.503c0 1.83-.362 3.61-1.076 5.285a13.6 13.6 0 0 1-2.93 4.315 13.6 13.6 0 0 1-4.346 2.908 13.7 13.7 0 0 1-5.323 1.068m0-25.437c-6.587 0-11.947 5.322-11.947 11.86 0 6.539 5.36 11.86 11.947 11.86s11.947-5.321 11.947-11.86-5.36-11.86-11.947-11.86"/><path fill="#000" d="M70.89 84.834H54.44c-2.673 0-4.848-2.159-4.848-4.813s2.175-4.813 4.848-4.813h9.786l-1.79-5.495a.86.86 0 0 1 .557-1.081.867.867 0 0 1 1.09.552l2.154 6.617a.86.86 0 0 1-.823 1.122H54.44c-1.72 0-3.12 1.39-3.12 3.098s1.4 3.098 3.12 3.098h16.45c.995 0 1.94-.478 2.524-1.274a3.1 3.1 0 0 0 .448-2.776c0-.004-.004-.01-.004-.014l-4.213-13.718a.86.86 0 0 1 .573-1.071.866.866 0 0 1 1.08.57l4.21 13.71a4.8 4.8 0 0 1-.697 4.305 4.86 4.86 0 0 1-3.92 1.983"/><path fill="#000" d="M36.333 99q-.494-.001-.987-.098c-2.786-.532-4.62-3.224-4.08-6l2.55-13.054a5.17 5.17 0 0 1 2.835-3.644 5.24 5.24 0 0 1 4.633.085l.038.017.02.01.663.35 5.019 2.636c.423.22.584.743.358 1.16a.864.864 0 0 1-1.167.356l-5.713-3-.017-.01a3.47 3.47 0 0 0-3.087-.062 3.43 3.43 0 0 0-1.884 2.424l-2.548 13.05a3.41 3.41 0 0 0 2.712 3.99h.006q.329.066.653.065a3.426 3.426 0 0 0 3.36-2.76l1.437-7.365a.866.866 0 0 1 1.594-.33 9.12 9.12 0 0 0 7.484 3.552 9.13 9.13 0 0 0 6.403-2.816l4.005-4.18a.87.87 0 0 1 1.223-.03.856.856 0 0 1 .03 1.214l-4.005 4.18a10.85 10.85 0 0 1-7.61 3.348q-.138.005-.274.004c-2.793 0-5.44-1.044-7.474-2.96l-1.113 5.705A5.164 5.164 0 0 1 36.333 99m10.056-42.226a.8.8 0 0 1-.328-.064l-13.255-5.407a.856.856 0 0 1-.471-1.118c1.229-2.97 4.114-4.892 7.31-4.936l.536-1.298a3.17 3.17 0 0 1 4.122-1.708 3.12 3.12 0 0 1 1.714 1.691c.324.773.327 1.624.006 2.4l-.536 1.298a7.92 7.92 0 0 1 1.7 8.614.86.86 0 0 1-.798.528m-12.07-6.711 11.544 4.711a6.22 6.22 0 0 0-1.97-6.277.85.85 0 0 1-.233-.973l.762-1.844a1.4 1.4 0 0 0-.003-1.085 1.43 1.43 0 0 0-.775-.766 1.435 1.435 0 0 0-1.865.773l-.765 1.844a.86.86 0 0 1-.853.529 6.3 6.3 0 0 0-5.842 3.088"/><path fill="#000" d="M45.692 61.67a.9.9 0 0 1-.328-.065l-15.532-6.336a.856.856 0 0 1-.471-1.118l1.833-4.434a.86.86 0 0 1 .468-.465.88.88 0 0 1 .663-.003l1.136.465c.441.18.653.68.472 1.118a.867.867 0 0 1-1.127.468l-.338-.139-1.178 2.844 13.93 5.685 1.178-2.844-.338-.14a.856.856 0 0 1-.471-1.118.867.867 0 0 1 1.127-.468l1.136.465a.86.86 0 0 1 .472 1.121L46.49 61.14a.87.87 0 0 1-.799.53"/><path fill="#000" d="M41.438 72.787a.8.8 0 0 1-.297-.054.855.855 0 0 1-.512-1.102l2.919-7.89a.1.1 0 0 1 .014-.031c.525-1.261-.216-2.81-1.687-3.529l-.089-.04a2 2 0 0 0-.126-.055.856.856 0 0 1-.489-1.112.866.866 0 0 1 1.12-.484q.114.046.205.088l.082.037.038.017c1.092.529 1.96 1.393 2.441 2.434.499 1.078.536 2.244.11 3.284l-2.913 7.875a.88.88 0 0 1-.816.562M24.966 74.17a.85.85 0 0 1-.594-.237c-1.396-1.319-1.87-3.207-1.209-4.81l4.866-11.752c.447-1.078 1.339-1.895 2.506-2.305 1.124-.393 2.384-.363 3.555.081l.03.01q.066.02.127.055a.86.86 0 0 1 .498.776.86.86 0 0 1-.863.858.9.9 0 0 1-.4-.092c-1.584-.607-3.312-.037-3.855 1.271l-4.865 11.752c-.39.943-.076 2.085.798 2.912a.853.853 0 0 1 .031 1.214.85.85 0 0 1-.625.267"/></svg>