<svg xmlns="http://www.w3.org/2000/svg" width="84" height="84" fill="none"><path fill="#56A063" d="M83.82 49.727 72.716 33.232a1.05 1.05 0 0 0-1.473-.274l-2.468 1.729c-2.614 1.83-7.646 1.053-11.214-.442l-4.807-2.015a13.28 13.28 0 0 0-10.741.202 13.37 13.37 0 0 0-10.765-.202l-4.807 2.015c-3.628 1.52-8.712 2.335-11.296.524l-2.468-1.728a1.05 1.05 0 0 0-1.474.275L.178 49.728a1.05 1.05 0 0 0 .27 1.446l7.962 5.574-1.4 1.96a5.72 5.72 0 0 0 1.332 7.972 5.67 5.67 0 0 0 4.262.984c.029-.005.055-.017.084-.022a5.68 5.68 0 0 0 2.264 5.836 5.68 5.68 0 0 0 5.21.735 6 6 0 0 0 .067.975 5.68 5.68 0 0 0 2.317 3.71 5.7 5.7 0 0 0 3.312 1.06c1.03 0 2.048-.285 2.943-.82.004.03 0 .06.006.09a5.68 5.68 0 0 0 2.317 3.71A5.7 5.7 0 0 0 34.436 84a5.71 5.71 0 0 0 4.66-2.392l1.606-2.25 3.876 2.713a5.7 5.7 0 0 0 3.27 1.03c1.803 0 3.58-.848 4.69-2.434.783-1.118 1.107-2.45.983-3.794a5.65 5.65 0 0 0 3.608.553 5.675 5.675 0 0 0 4.66-6.316 5.6 5.6 0 0 0 1.999.381q.501 0 1.004-.088a5.68 5.68 0 0 0 3.689-2.35c.777-1.109 1.102-2.428.987-3.761.909.542 1.912.82 2.913.82a5.714 5.714 0 0 0 5.636-6.704 5.66 5.66 0 0 0-1.345-2.766l6.931-5.507c.43-.34.524-.953.218-1.408M12.259 65.593c-.95.16-1.91-.061-2.696-.623a3.62 3.62 0 0 1-.843-5.041l2.165-3.033a3.6 3.6 0 0 1 2.348-1.466 3.618 3.618 0 0 1 3.538 5.664l-2.166 3.034a3.6 3.6 0 0 1-2.346 1.465m3.914 6.176a3.6 3.6 0 0 1-1.465-2.347 3.6 3.6 0 0 1 .622-2.695l3.15-4.412.983-1.378a3.61 3.61 0 0 1 2.948-1.513c.726 0 1.46.218 2.095.67a3.62 3.62 0 0 1 .842 5.043l-4.133 5.79a3.62 3.62 0 0 1-5.042.841m10.29 6.042a3.6 3.6 0 0 1-2.696-.623 3.6 3.6 0 0 1-1.466-2.346 3.6 3.6 0 0 1 .624-2.696l4.132-5.789a3.6 3.6 0 0 1 2.348-1.466q.301-.05.602-.05c.747 0 1.473.232 2.093.674a3.6 3.6 0 0 1 1.465 2.346c.16.953-.062 1.91-.623 2.696l-3.149 4.41v.002l-.984 1.377a3.6 3.6 0 0 1-2.347 1.465m10.924 2.576a3.62 3.62 0 0 1-5.042.843 3.6 3.6 0 0 1-1.466-2.347 3.6 3.6 0 0 1 .623-2.694l2.166-3.034a3.6 3.6 0 0 1 2.346-1.465 3.6 3.6 0 0 1 2.696.623 3.6 3.6 0 0 1 1.465 2.346 3.58 3.58 0 0 1-.57 2.604c-.008.01-.019.015-.026.025-.016.023-.019.051-.033.075zM75.35 62.474a3.6 3.6 0 0 1-2.334 1.486 3.6 3.6 0 0 1-2.7-.598l-12.919-9.045a1.051 1.051 0 0 0-1.205 1.72l1.387.972 8.295 5.807a3.6 3.6 0 0 1 1.486 2.333 3.6 3.6 0 0 1-.599 2.7 3.6 3.6 0 0 1-2.333 1.487 3.6 3.6 0 0 1-2.701-.599l-2.312-1.618-7.37-5.16a1.051 1.051 0 0 0-1.204 1.72l7.369 5.16a3.6 3.6 0 0 1 1.487 2.333 3.6 3.6 0 0 1-.6 2.7 3.6 3.6 0 0 1-2.333 1.487 3.6 3.6 0 0 1-2.7-.599l-7.37-5.159a1.05 1.05 0 0 0-1.205 1.72l1.387.971 3.055 2.14a3.6 3.6 0 0 1 1.485 2.331 3.6 3.6 0 0 1-.599 2.7 3.62 3.62 0 0 1-5.035.888l-3.953-2.768a5.67 5.67 0 0 0 .416-3.269 5.68 5.68 0 0 0-2.316-3.71 5.67 5.67 0 0 0-4.262-.984c-.029.004-.055.017-.084.022a5.68 5.68 0 0 0-2.264-5.835 5.68 5.68 0 0 0-4.262-.986 6 6 0 0 0-.95.256 5.7 5.7 0 0 0-2.382-4.69c-1.904-1.359-4.364-1.374-6.256-.244-.004-.03 0-.059-.006-.088a5.68 5.68 0 0 0-2.316-3.71 5.68 5.68 0 0 0-4.261-.985 5.65 5.65 0 0 0-3.193 1.724l-7.197-5.039 9.852-14.669 1.591 1.114c3.477 2.433 9.345 1.355 13.313-.308l4.807-2.014a11.26 11.26 0 0 1 7.605-.382l-9.595 6.75a5.72 5.72 0 0 0-1.403 7.958 5.68 5.68 0 0 0 3.69 2.35 5.68 5.68 0 0 0 4.269-.947l8.79-6.148c2.843-1.987 6.67-1.997 9.516-.03l19.53 13.72a3.6 3.6 0 0 1 1.487 2.334 3.6 3.6 0 0 1-.598 2.701m-.324-7.204L56.132 41.996a10.43 10.43 0 0 0-5.937-1.843c-2.098 0-4.196.625-5.983 1.875l-8.792 6.148a3.6 3.6 0 0 1-2.7.599 3.6 3.6 0 0 1-2.334-1.486 3.62 3.62 0 0 1 .89-5.036l9.841-6.923a11.21 11.21 0 0 1 10.824-1.163l4.807 2.014c3.91 1.64 9.722 2.68 13.23.226l1.593-1.115 9.966 14.803zM35.804 25.175l5.686 3.158a1.05 1.05 0 0 0 1.02 0l5.686-3.158a12.24 12.24 0 0 0 6.295-10.697V5.693a1.05 1.05 0 0 0-.993-1.048 3.77 3.77 0 0 1-3.58-3.635A1.05 1.05 0 0 0 48.867 0H35.131a1.05 1.05 0 0 0-1.049 1.01 3.77 3.77 0 0 1-3.58 3.635 1.05 1.05 0 0 0-.993 1.048v8.785c0 4.442 2.412 8.54 6.294 10.697m-4.195-18.57A5.85 5.85 0 0 0 36.056 2.1h11.888a5.85 5.85 0 0 0 4.447 4.505v7.873c0 3.68-1.998 7.075-5.215 8.862L42 26.215l-5.177-2.875a10.14 10.14 0 0 1-5.214-8.862z"/></svg>