<svg xmlns="http://www.w3.org/2000/svg" width="164" height="49" fill="none"><path fill="#fff" d="M28.19 44V33.976h1.526v8.568h4.774V44zm7.916 0V33.976h1.526V44zm3.91 0V33.976h6.104v1.456h-4.578V44zm.826-4.172v-1.456h4.844v1.456zM47.877 44V33.976h6.356v1.456h-4.83v7.112h4.83V44zm.826-4.466v-1.456H53.8v1.456zm10.46 4.69q-1.022 0-1.82-.35a3.26 3.26 0 0 1-1.316-1.036q-.504-.686-.686-1.68l1.54-.336q.155.868.728 1.414.575.532 1.568.532.603 0 1.05-.182.462-.182.714-.518.252-.35.252-.798 0-.476-.224-.784-.21-.308-.686-.532-.462-.239-1.232-.462l-.742-.238a7 7 0 0 1-.938-.35 3.6 3.6 0 0 1-.84-.532 2.4 2.4 0 0 1-.602-.784q-.224-.462-.224-1.092 0-.77.406-1.386.406-.63 1.148-.994.756-.364 1.792-.364 1.05 0 1.778.35.729.35 1.134.966.42.602.518 1.372l-1.456.224a1.86 1.86 0 0 0-.336-.784 1.65 1.65 0 0 0-.658-.518q-.392-.182-.966-.182-.531 0-.952.168-.42.154-.658.434a.98.98 0 0 0-.238.658q0 .56.49.924.49.35 1.456.644l.728.224a8 8 0 0 1 1.092.42q.518.238.896.588.393.35.616.84.224.476.224 1.162 0 .728-.28 1.288a2.6 2.6 0 0 1-.784.938 3.3 3.3 0 0 1-1.134.56q-.645.195-1.358.196M68.085 44V33.976h1.526V44zm3.91 0V33.976h2.058l2.772 7.602h.084l2.786-7.602h2.058V44H80.24v-5.656l.084-1.75h-.084L77.483 44h-1.218l-2.772-7.406h-.084l.084 1.75V44zm12.14 0V33.976h3.752q.952 0 1.708.336t1.19 1.036q.448.686.448 1.764t-.448 1.778a2.6 2.6 0 0 1-1.19 1.036q-.756.336-1.708.336H84.99v-1.456h2.94q.56 0 .952-.182.406-.196.616-.574.225-.392.224-.938 0-.56-.224-.924a1.3 1.3 0 0 0-.616-.56q-.391-.195-.952-.196h-2.268V44zm6.868 0 3.64-10.024h1.75L100.033 44h-1.68l-2.436-7.07-.35-1.148h-.084l-.364 1.148L92.683 44zm4.522-2.576v-1.428h2.254l.504 1.428zm-2.758 0 .504-1.428h2.254v1.428zm12.327 2.8a4.6 4.6 0 0 1-1.862-.364 4.2 4.2 0 0 1-1.442-1.05 4.8 4.8 0 0 1-.952-1.652q-.322-.966-.322-2.17t.336-2.17q.351-.98.966-1.652a4.2 4.2 0 0 1 1.456-1.05 4.6 4.6 0 0 1 1.834-.364q1.078 0 1.974.378a3.56 3.56 0 0 1 1.484 1.12q.588.728.686 1.806l-1.512.252a2.55 2.55 0 0 0-.434-1.078 2.3 2.3 0 0 0-.882-.742q-.546-.28-1.316-.28-.853 0-1.554.434-.685.42-1.092 1.26-.392.84-.392 2.086 0 1.232.392 2.072.407.84 1.092 1.274.687.434 1.554.434 1.107 0 1.792-.574.687-.588.868-1.54l1.512.168q-.182 1.05-.728 1.82a3.56 3.56 0 0 1-1.414 1.176q-.868.406-2.044.406m8.064-.224v-9.268h1.526V44zm-3.052-8.568v-1.456h7.63v1.456zM119.258 44V33.976h6.356v1.456h-4.83v7.112h4.83V44zm.826-4.466v-1.456h5.096v1.456zM127.557 44V33.976h3.332q1.554 0 2.618.602a3.9 3.9 0 0 1 1.624 1.708q.56 1.106.56 2.702 0 1.582-.56 2.702a3.96 3.96 0 0 1-1.624 1.722q-1.064.588-2.618.588zm1.526-1.456h1.764q1.05 0 1.778-.378.743-.379 1.134-1.162.393-.785.392-2.016c-.001-1.231-.13-1.493-.392-2.016q-.392-.799-1.134-1.162-.728-.378-1.778-.378h-1.764zM47.02 26.432q-1.08 0-2.295-.459-1.215-.486-2.214-1.539-.999-1.08-1.485-2.835l2.106-.918q.459 1.62 1.458 2.592a3.4 3.4 0 0 0 2.43.972q1.053 0 1.917-.486a3.7 3.7 0 0 0 1.404-1.323q.54-.864.54-1.89t-.54-1.836a3.75 3.75 0 0 0-1.431-1.269 4.05 4.05 0 0 0-1.971-.486h-1.593v-2.16h1.431q.972 0 1.755-.405.81-.405 1.269-1.134t.459-1.728q0-.972-.432-1.674a2.7 2.7 0 0 0-1.188-1.053q-.756-.378-1.755-.378-1.026 0-1.701.432t-1.08 1.08a5.6 5.6 0 0 0-.567 1.215l-2.106-.945q.27-.837.972-1.755t1.836-1.566q1.161-.648 2.754-.648 1.674 0 2.916.648a4.57 4.57 0 0 1 1.971 1.809q.702 1.161.702 2.781 0 1.08-.351 1.917a3.8 3.8 0 0 1-.918 1.404 4.4 4.4 0 0 1-1.269.891v.108a4.9 4.9 0 0 1 1.566 1.026q.729.648 1.161 1.593.432.918.432 2.106 0 1.728-.837 3.078a5.93 5.93 0 0 1-2.241 2.079q-1.404.756-3.105.756m8.564-4.698v-1.728l8.992-13.338h2.43V26h-2.242V10.178h-.135l-6.453 9.396H69.22v2.16zm23.432 4.698q-1.701 0-3.051-.783t-2.322-2.16-1.485-3.213-.513-3.942.513-3.942 1.485-3.213q.972-1.404 2.322-2.16 1.35-.783 3.05-.783 1.702 0 3.052.783 1.376.756 2.349 2.16.972 1.377 1.485 3.213t.513 3.942-.513 3.942-1.485 3.213-2.35 2.16q-1.35.783-3.05.783m0-2.187q1.566 0 2.7-1.053t1.728-2.835q.62-1.809.62-4.023 0-2.241-.62-4.023-.594-1.782-1.728-2.835c-1.134-1.053-1.656-1.053-2.7-1.053q-1.566 0-2.7 1.053-1.107 1.053-1.728 2.835-.594 1.782-.594 4.023 0 2.214.594 4.023.621 1.782 1.728 2.835 1.134 1.053 2.7 1.053m17.35 2.187q-1.702 0-3.052-.783t-2.322-2.16-1.485-3.213-.513-3.942.513-3.942 1.485-3.213q.972-1.404 2.322-2.16 1.35-.783 3.051-.783t3.051.783q1.377.756 2.349 2.16.972 1.377 1.485 3.213t.513 3.942-.513 3.942-1.485 3.213-2.349 2.16q-1.35.783-3.05.783m0-2.187q1.565 0 2.7-1.053 1.133-1.053 1.727-2.835.621-1.809.621-4.023 0-2.241-.621-4.023-.594-1.782-1.728-2.835c-1.134-1.053-1.656-1.053-2.7-1.053q-1.566 0-2.7 1.053-1.107 1.053-1.728 2.835-.594 1.782-.594 4.023 0 2.214.594 4.023.621 1.782 1.728 2.835 1.134 1.053 2.7 1.053Zm17.349 2.187q-1.701 0-3.051-.783t-2.322-2.16-1.485-3.213-.513-3.942.513-3.942 1.485-3.213q.972-1.404 2.322-2.16 1.35-.783 3.051-.783t3.051.783q1.377.756 2.349 2.16.972 1.377 1.485 3.213t.513 3.942-.513 3.942-1.485 3.213-2.349 2.16q-1.35.783-3.051.783m0-2.187q1.566 0 2.7-1.053t1.728-2.835q.621-1.809.621-4.023 0-2.241-.621-4.023-.594-1.782-1.728-2.835c-1.134-1.053-1.656-1.053-2.7-1.053q-1.566 0-2.7 1.053-1.107 1.053-1.728 2.835-.594 1.782-.594 4.023 0 2.214.594 4.023.621 1.782 1.728 2.835 1.134 1.053 2.7 1.053M.047 27.057a.13.13 0 0 1 .12-.025l.129.04.02.006c.098.03.183.056.268.091 1.334.554 2.384 1.503 3.21 2.902.204.345.363.704.488 1.062-.206-1.204-.254-1.674-.29-3.021l-.002-.172c0-.156 0-.303-.033-.437a2.3 2.3 0 0 0-.194-.472q-.031-.067-.06-.125a.1.1 0 0 0-.034-.022 1.95 1.95 0 0 1-1.031-.517 3.5 3.5 0 0 1-.77-1.059C1.162 23.833.81 22.202.82 20.462c0-.168.02-.331.04-.509q.015-.119.028-.245a.14.14 0 0 1 .07-.108.13.13 0 0 1 .126.007l.063.04c.036.022.063.039.089.058.6.45 1.13 1.01 1.574 1.665a7.47 7.47 0 0 1 1.26 3.608l.034-.445.004-.053c.045-.582.09-1.183.128-1.774.01-.15.037-.295.064-.436.051-.271.1-.527.022-.795q-.026-.091-.047-.182c-.037-.151-.214-.383-.487-.637l-.01-.01c-.1-.089-.616-.582-.908-1.557-.297-.991-.275-2.026-.258-2.782v-.02c.022-1.04.13-1.823.348-2.54a5 5 0 0 1 .098-.277l.057-.154a.13.13 0 0 1 .099-.086l.022-.003c.039 0 .075.019.1.05l.212.271C4.57 14.85 5.07 16.375 5.04 18.084a9 9 0 0 1-.065.928c.26-.936.564-1.847.91-2.723a.2.2 0 0 0 .012-.063l.002-.12a8 8 0 0 0 0-.527.3.3 0 0 0-.056-.134 5 5 0 0 0-.174-.22 3 3 0 0 1-.299-.41c-.276-.482-.405-1.053-.407-1.794-.004-.874.125-1.793.406-2.893.153-.6.385-1.38.816-2.087.03-.048.062-.092.097-.14q.024-.03.049-.067c.024-.034.058-.055.113-.055a.13.13 0 0 1 .104.07c.541 1.021.81 2.112.824 3.335a9.4 9.4 0 0 1-.333 2.591A26 26 0 0 1 8.65 11.1l.014-.02q.02-.029.018-.02c.037-.276.062-.496.08-.688a.2.2 0 0 0-.031-.067 5 5 0 0 0-.127-.207 2.4 2.4 0 0 1-.243-.46c-.18-.502-.221-1.072-.124-1.741.214-1.481.839-2.815 1.91-4.078.11-.13.232-.244.36-.365l.036-.034.155-.148a.13.13 0 0 1 .127-.031.13.13 0 0 1 .087.099l.024.107c.016.071.028.127.037.184.144.899.134 1.862-.032 2.944-.165 1.074-.493 2-.996 2.804A21 21 0 0 1 12.2 6.976l.009-.023c-.06-.54.067-1.048.39-1.554a4 4 0 0 1 1.748-1.508c.44-.2.897-.377 1.344-.55.215-.083.429-.166.65-.255.221-.092.316-.108.367-.058.067.064.05.12.022.22l-.01.032c-.27.951-.629 1.704-1.097 2.3-.859 1.097-1.863 1.654-3.07 1.703a.2.2 0 0 0-.089.026c-.17.133-.294.24-.405.345q-.526.502-1.03 1.064c.5-.326 1.113-.472 1.802-.436.377.02.752.078 1.114.134l.014.002.32.048c.232.033.467.076.674.114.084.016.284.063.33.165a.12.12 0 0 1-.003.107 1 1 0 0 1-.053.085c-.598.81-1.28 1.345-2.085 1.632-.982.353-1.884.324-2.694-.09a.9.9 0 0 0-.444-.108 1 1 0 0 0-.258.029c-.048.008-.113.036-.126.054a25 25 0 0 0-1.43 2.21c.378-.384.87-.643 1.54-.812.588-.146 1.189-.177 1.77-.208l.194-.01q.272-.015.552-.034l.315-.02c.04 0 .08.02.103.054a.14.14 0 0 1 .017.128 1 1 0 0 1-.048.12c-.612 1.07-1.331 1.812-2.198 2.265-.848.442-1.614.56-2.386.366a1.3 1.3 0 0 0-.3-.034c-.329 0-.558.104-.606.201a28 28 0 0 0-1.131 2.84c.343-.494.823-.896 1.43-1.196.603-.298 1.232-.57 1.85-.838q.399-.172.798-.348a.13.13 0 0 1 .123.011.14.14 0 0 1 .057.113c0 .086-.881 2.644-2.161 3.651-.523.411-1.166.834-1.977.854-.243.005-.494.041-.684.266a.25.25 0 0 1-.109.079c-.065.022-.083.064-.115.205a28 28 0 0 0-.571 3.548q.053-.184.124-.372c.287-.759.769-1.424 1.518-2.091.386-.346.79-.68 1.18-1.004l.02-.015q.267-.22.532-.443.054-.044.114-.1l.11-.098a.13.13 0 0 1 .142-.018.14.14 0 0 1 .07.13q-.008.122-.013.233l-.003.034a10 10 0 0 1-.031.439c-.139 1.382-.532 2.537-1.203 3.53-.416.612-1.011 1.362-1.94 1.716-.226.087-.39.218-.566.454-.165.22-.196.422-.193.676.016 1.063.089 2.118.216 3.15a4.6 4.6 0 0 1 .19-.89c.202-.637.516-1.256.96-1.892.383-.551.782-1.104 1.167-1.64l.026-.035.454-.632a.17.17 0 0 1 .092-.066.12.12 0 0 1 .107-.003c.034.015.06.045.072.082l.005.015q.01.029.014.053c.266 1.658.103 3.143-.499 4.54-.293.684-.687 1.458-1.382 2.015-.317.254-.568.61-.705 1.003-.03.085-.028.122-.025.136.294 1.273.678 2.5 1.145 3.662a4.8 4.8 0 0 1 .025-1.922c.195-.944.53-1.86.829-2.643l.09-.235.426-1.121a.13.13 0 0 1 .122-.086c.047 0 .09.028.112.073l.047.093.057.117c.6 1.416.803 2.868.602 4.316-.143 1.035-.386 1.776-.789 2.403-.208.324-.405.685-.441 1.13a.42.42 0 0 0 .04.26 20.4 20.4 0 0 0 1.698 2.617l-.007-.013c-.448-.856-.461-1.781-.415-2.573.04-.68.114-1.358.185-2.013l.004-.038q.045-.394.084-.788a24 24 0 0 1 .05-.45l.023-.205a.13.13 0 0 1 .07-.104c.07-.039.184.02.308.174a7.2 7.2 0 0 1 1.568 3.528c.197 1.339.09 2.484-.328 3.502a.3.3 0 0 0-.01.1l.022.586a.2.2 0 0 0 .042.108 15 15 0 0 0 2.785 2.214c-.474-.448-.816-1.033-1.037-1.774-.245-.822-.37-1.677-.492-2.506l-.011-.074q-.065-.435-.134-.879l-.052-.336a.14.14 0 0 1 .047-.127.13.13 0 0 1 .13-.019l.045.02q.071.03.13.06c1.896.99 3.143 3.297 2.967 5.487-.028.343.002.665.092.984.008.029.035.06.046.066.9.397 1.756.686 2.617.885.045.01.08.044.094.088a.14.14 0 0 1-.024.13 2.2 2.2 0 0 0-.242.372.13.13 0 0 1-.142.067 14.4 14.4 0 0 1-2.032-.644c-.052-.022-.092-.033-.13-.026-.143.02-.295.05-.464.094-.034.01-.063.026-.064.024-.368.768-1.002 1.258-1.937 1.496a5 5 0 0 1-.624.111 7.7 7.7 0 0 1-1.36.013c-.81-.095-1.502-.285-2.115-.583-.252-.122-.538-.286-.759-.579a.14.14 0 0 1 .016-.184c.623-.575 1.257-.992 1.94-1.276 1.01-.42 1.93-.533 2.833-.352q.202.041.394.101a16 16 0 0 1-2.415-1.852.13.13 0 0 0-.058-.03 5 5 0 0 0-.46-.061.1.1 0 0 0-.038.009c-.46.537-1.052.799-1.811.799l-.116-.002c-.825-.028-1.655-.265-2.466-.705-.59-.321-1.204-.696-1.702-1.254a4 4 0 0 1-.297-.388l-.008-.012-.118-.164a.14.14 0 0 1 .036-.198 4 4 0 0 1 .413-.201c1.29-.521 2.592-.575 3.835-.156.406.136.79.341 1.162.625a21 21 0 0 1-1.907-2.743c-.006-.01-.023-.04-.028-.044l-.155-.097c-.092-.057-.188-.116-.278-.186-.076-.06-.098-.061-.175-.01a1.1 1.1 0 0 1-.345.143c-.645.172-1.295.087-2.014-.266-.657-.322-1.162-.83-1.61-1.333-.652-.731-1.078-1.392-1.34-2.078a4 4 0 0 1-.136-.448l-.053-.195a.136.136 0 0 1 .08-.166l.054-.004c.266 0 2.637.04 4.024 1.447.302.306.572.631.82.987a27 27 0 0 1-1.39-3.822l-.005-.02a.2.2 0 0 0-.016-.047l-.363-.52c-.013-.022-.015-.022-.036-.022l-.032.002-.077.005c-.27.017-.429.015-.56-.007-.516-.085-.982-.357-1.425-.831C1.24 31.149.526 29.765.096 28.028c-.046-.185-.059-.373-.073-.573a8 8 0 0 0-.022-.28.14.14 0 0 1 .046-.118m163.906 0a.13.13 0 0 0-.12-.025l-.129.04-.019.006c-.099.03-.184.056-.269.091-1.334.554-2.384 1.503-3.21 2.902a6 6 0 0 0-.488 1.062c.206-1.204.254-1.674.29-3.021l.002-.172c0-.156 0-.303.033-.437.039-.16.117-.318.194-.472l.06-.125a.1.1 0 0 1 .034-.022c.381-.06.718-.23 1.031-.517.315-.291.575-.647.771-1.059.704-1.475 1.056-3.106 1.047-4.846a5 5 0 0 0-.041-.509l-.027-.245a.13.13 0 0 0-.071-.108.13.13 0 0 0-.125.007l-.063.04a1 1 0 0 0-.089.058 7 7 0 0 0-1.574 1.665 7.46 7.46 0 0 0-1.26 3.608l-.034-.445-.004-.053c-.045-.582-.091-1.183-.128-1.774a4 4 0 0 0-.064-.436c-.051-.271-.1-.527-.022-.795q.026-.091.047-.182c.037-.151.214-.383.487-.637l.01-.01c.1-.089.616-.582.908-1.557.297-.991.275-2.026.258-2.782v-.02c-.022-1.04-.129-1.823-.348-2.54a20 20 0 0 0-.155-.431.13.13 0 0 0-.099-.086l-.022-.003a.12.12 0 0 0-.099.05l-.213.271c-1.021 1.301-1.522 2.827-1.491 4.536q.008.45.065.928a27 27 0 0 0-.91-2.723.2.2 0 0 1-.012-.063l-.002-.12a8 8 0 0 1-.001-.527.3.3 0 0 1 .057-.134q.082-.11.174-.22c.105-.128.213-.26.299-.41.276-.482.405-1.053.407-1.794.004-.874-.125-1.793-.406-2.893-.153-.6-.385-1.38-.816-2.087a2 2 0 0 0-.097-.14l-.049-.067c-.024-.034-.058-.055-.113-.055a.13.13 0 0 0-.104.07c-.541 1.021-.811 2.112-.824 3.335a9.4 9.4 0 0 0 .333 2.591 26 26 0 0 0-1.612-2.676l-.014-.02q-.02-.029-.018-.02a17 17 0 0 1-.08-.688c.001-.003.004-.019.031-.067q.059-.102.127-.207c.09-.144.183-.293.243-.46.181-.502.221-1.072.124-1.741-.214-1.481-.839-2.815-1.91-4.078a5 5 0 0 0-.361-.365l-.035-.034-.155-.148a.13.13 0 0 0-.127-.031.13.13 0 0 0-.087.099l-.024.107a3 3 0 0 0-.037.184c-.144.899-.134 1.862.032 2.944.165 1.074.493 2 .996 2.804a21 21 0 0 0-2.256-2.402l-.009-.023c.06-.54-.067-1.048-.39-1.554a4 4 0 0 0-1.748-1.508c-.44-.2-.897-.377-1.344-.55a47 47 0 0 1-.649-.255c-.222-.092-.317-.108-.368-.058-.067.064-.051.12-.022.22l.01.032c.27.951.629 1.704 1.097 2.3.859 1.097 1.863 1.654 3.069 1.703a.2.2 0 0 1 .09.026c.169.133.294.24.405.345q.524.502 1.03 1.064c-.501-.326-1.113-.472-1.802-.436-.377.02-.752.078-1.114.134l-.014.002-.319.048c-.233.033-.468.076-.675.114-.084.016-.284.063-.33.165a.12.12 0 0 0 .003.107q.024.045.053.085c.598.81 1.28 1.345 2.085 1.632.982.353 1.884.324 2.694-.09a.9.9 0 0 1 .444-.108c.129 0 .226.021.258.029.048.008.113.036.126.054a24 24 0 0 1 1.429 2.21c-.377-.384-.869-.643-1.54-.812-.587-.146-1.188-.177-1.769-.208l-.194-.01q-.273-.015-.552-.034l-.315-.02a.13.13 0 0 0-.103.054.14.14 0 0 0-.017.128c.013.036.036.099.047.12.613 1.07 1.332 1.812 2.199 2.265.848.442 1.614.56 2.386.366.089-.022.193-.034.3-.034.329 0 .558.104.606.201.425.917.804 1.869 1.131 2.84-.343-.494-.823-.896-1.43-1.196-.603-.298-1.232-.57-1.85-.838q-.399-.172-.798-.348a.13.13 0 0 0-.123.011.14.14 0 0 0-.058.113c0 .086.882 2.644 2.162 3.651.523.411 1.166.834 1.977.854.243.005.494.041.684.266a.25.25 0 0 0 .109.079c.065.022.083.064.115.205.262 1.153.454 2.341.571 3.548a5 5 0 0 0-.124-.372c-.287-.759-.769-1.424-1.518-2.091-.386-.346-.79-.68-1.181-1.004l-.019-.015-.532-.443-.114-.1-.11-.098a.13.13 0 0 0-.142-.018.14.14 0 0 0-.07.13l.013.233.003.034q.011.228.031.439c.139 1.382.532 2.537 1.203 3.53.416.612 1.011 1.362 1.94 1.716.226.087.39.218.566.454.165.22.196.422.193.676a30 30 0 0 1-.216 3.15 4.5 4.5 0 0 0-.191-.89c-.201-.637-.515-1.256-.959-1.892-.383-.551-.782-1.104-1.167-1.64l-.026-.035-.454-.632a.17.17 0 0 0-.092-.066.12.12 0 0 0-.107-.003.13.13 0 0 0-.072.082l-.005.015-.014.053c-.266 1.658-.103 3.143.499 4.54.293.684.687 1.458 1.382 2.015.317.254.568.61.705 1.003.029.085.028.122.025.136a25 25 0 0 1-1.145 3.662 4.85 4.85 0 0 0-.025-1.922c-.195-.944-.53-1.86-.829-2.643l-.089-.235-.427-1.121a.13.13 0 0 0-.122-.086.13.13 0 0 0-.112.073l-.047.093q-.031.06-.057.117c-.6 1.416-.803 2.868-.602 4.316.143 1.035.386 1.776.789 2.403.208.324.405.685.441 1.13a.4.4 0 0 1-.04.26 20.5 20.5 0 0 1-1.698 2.617l.007-.013c.448-.856.461-1.781.415-2.573-.039-.68-.114-1.358-.185-2.013l-.004-.038q-.044-.394-.084-.788a25 25 0 0 0-.05-.45l-.023-.205a.13.13 0 0 0-.069-.104c-.071-.039-.185.02-.309.174a7.23 7.23 0 0 0-1.568 3.528c-.197 1.339-.09 2.484.328 3.502a.3.3 0 0 1 .011.1l-.023.586a.2.2 0 0 1-.042.108 15 15 0 0 1-2.785 2.214c.474-.448.816-1.033 1.037-1.774.245-.822.371-1.677.492-2.506l.011-.074q.065-.435.134-.879l.052-.336a.14.14 0 0 0-.047-.127.13.13 0 0 0-.13-.019l-.045.02q-.071.03-.13.06c-1.896.99-3.143 3.297-2.967 5.487.028.343-.002.665-.092.984a.13.13 0 0 1-.046.066c-.9.397-1.756.686-2.617.885a.13.13 0 0 0-.094.088.14.14 0 0 0 .024.13q.14.175.242.372c.027.053.093.08.142.067a14.4 14.4 0 0 0 2.032-.644c.052-.022.092-.033.129-.026.144.02.296.05.465.094.035.01.063.026.064.024.368.768 1.002 1.258 1.937 1.496q.307.076.624.111a7.7 7.7 0 0 0 1.359.013c.811-.095 1.503-.285 2.116-.583.252-.122.538-.286.759-.579a.14.14 0 0 0-.016-.184c-.623-.575-1.257-.992-1.939-1.276-1.011-.42-1.931-.533-2.833-.352a4 4 0 0 0-.395.101 16 16 0 0 0 2.415-1.852.13.13 0 0 1 .058-.03c.125-.022.29-.048.46-.061.016 0 .036.008.038.009.46.537 1.052.799 1.811.799l.116-.002c.825-.028 1.655-.265 2.466-.705.59-.321 1.204-.696 1.702-1.254.111-.124.21-.264.297-.388l.008-.012.118-.164a.14.14 0 0 0-.036-.198c-.009-.005-.22-.124-.413-.201-1.29-.521-2.592-.575-3.835-.156a4 4 0 0 0-1.162.625 21 21 0 0 0 1.935-2.787q.077-.05.155-.097c.092-.057.188-.116.278-.186.076-.06.098-.061.175-.01.108.074.235.113.345.143.645.172 1.295.087 2.014-.266.657-.322 1.162-.83 1.61-1.333.652-.731 1.078-1.392 1.341-2.078a4 4 0 0 0 .135-.448q.025-.098.053-.195a.136.136 0 0 0-.08-.166l-.054-.004c-.266 0-2.637.04-4.024 1.447a7.4 7.4 0 0 0-.819.987 27.4 27.4 0 0 0 1.389-3.822l.005-.02a.2.2 0 0 1 .016-.047l.363-.52c.013-.022.015-.022.036-.022l.032.002.077.005c.27.017.429.015.56-.007.516-.085.982-.357 1.425-.831 1.034-1.109 1.747-2.493 2.177-4.23.046-.185.059-.373.073-.573q.009-.135.022-.28a.14.14 0 0 0-.046-.118"/></svg>