<svg xmlns="http://www.w3.org/2000/svg" width="106" height="106" fill="none"><circle cx="53" cy="53" r="53" fill="#ABBBEF"/><path fill="#fff" d="M53.269 53.794c-.87 0-1.726-.448-2.476-.914l-7.982-4.974c-.64-.4-1.28-.707-1.898-1.006-1.803-.872-3.673-1.775-5.58-4.865-.857-1.392-1.81-2.214-3.778-3.262a.97.97 0 0 1 .911-1.712c1.913 1.017 3.335 2.034 4.52 3.954 1.608 2.61 3.076 3.317 4.774 4.139.663.32 1.348.653 2.08 1.106l7.979 4.974c.952.593 1.374.658 1.559.608.166-.044.318-.273.414-.455.541-1.02-.024-3.61-1.435-5.07l-4.417-4.581-.042-.045c-.82-.962-.778-1.745-.601-2.234.297-.812 1.15-1.343 2.535-1.577 5.09-.85 6.5 1.569 8.45 4.922l.113.193a.97.97 0 0 1-1.674.975l-.112-.192c-1.9-3.265-2.684-4.615-6.454-3.986-.62.104-.892.25-1 .323.03.06.087.158.204.301l4.394 4.561c1.906 1.972 2.739 5.463 1.75 7.323-.404.76-.95 1.236-1.623 1.415a2.4 2.4 0 0 1-.611.079m12.448-7.537a.97.97 0 0 1-.843-.491l-4.436-7.823-.01-.018c-2.12-3.931-5.772-4.29-10-4.706a100 100 0 0 1-1.988-.209c-4.915-.587-6.053-1.21-9.429-3.061-.62-.341-1.325-.726-2.145-1.163a.97.97 0 0 1 .911-1.712c.83.442 1.541.832 2.169 1.176 3.215 1.763 4.183 2.294 8.726 2.838a86 86 0 0 0 1.95.205c4.376.43 8.903.874 11.51 5.706l4.432 7.814a.97.97 0 0 1-.365 1.322 1.05 1.05 0 0 1-.482.122"/><path fill="#fff" d="M29.73 41.08a2.8 2.8 0 0 1-1.314-.327l-3.926-2.094a2.8 2.8 0 0 1-1.366-1.66 2.8 2.8 0 0 1 .205-2.139l6.042-11.368c.352-.66.94-1.147 1.661-1.368a2.8 2.8 0 0 1 2.143.205l3.928 2.092a2.77 2.77 0 0 1 1.364 1.652 2.8 2.8 0 0 1-.203 2.146L32.219 39.59a2.82 2.82 0 0 1-2.488 1.49m2.125-17.14a.87.87 0 0 0-.773.46L25.04 35.77a.87.87 0 0 0-.063.664.87.87 0 0 0 .422.515l3.928 2.092a.876.876 0 0 0 1.18-.362l6.041-11.368a.87.87 0 0 0-.356-1.176l-3.931-2.094a.86.86 0 0 0-.406-.102M60.16 60.506c-4.561 0-8.471-3.4-9.094-7.906a.969.969 0 1 1 1.921-.265c.492 3.553 3.577 6.233 7.175 6.233 3.993 0 7.242-3.247 7.242-7.237s-3.249-7.238-7.242-7.238a7.2 7.2 0 0 0-5.758 2.846.97.97 0 0 1-1.541-1.176 9.12 9.12 0 0 1 7.296-3.605c5.063 0 9.182 4.115 9.182 9.175 0 5.058-4.119 9.173-9.182 9.173"/><path fill="#fff" d="M83.034 67.53h-44.59a.97.97 0 0 1-.969-.968V54.938c0-.536.435-.967.968-.967h14.34a.968.968 0 1 1 0 1.935h-13.37v9.688h42.65v-9.688H67.537a.968.968 0 1 1 0-1.935h15.495c.536 0 .968.434.968.967v11.624a.964.964 0 0 1-.966.968"/><path fill="#fff" d="M75.28 60.75H46.198a.968.968 0 1 1 0-1.935h29.08a.968.968 0 1 1 0 1.935M80.126 84H41.351a.97.97 0 0 1-.968-.968v-16.47c0-.535.434-.967.968-.967h38.775c.536 0 .968.434.968.967V83.03a.97.97 0 0 1-.968.97M42.32 82.062h36.835V67.53H42.32z"/></svg>