<svg xmlns="http://www.w3.org/2000/svg" width="122" height="86" fill="none"><path fill="#000" d="M38.125 0H20.333C9.12 0 0 9.076 0 20.235v17.706c0 6.971 5.704 12.647 12.708 12.647h32.803c-1.825 18.86-14.045 30.353-32.803 30.353a2.536 2.536 0 0 0-2.541 2.53A2.536 2.536 0 0 0 12.708 86c22.143 0 36.799-14.524 38.039-37.289.056-.212.086-36.064.086-36.064C50.833 5.676 45.13 0 38.125 0m7.625 45.53H12.708c-4.204 0-7.625-3.405-7.625-7.589V20.235c0-8.367 6.842-15.176 15.25-15.176h17.792c4.204 0 7.625 3.404 7.625 7.588zM122 12.646C122 5.676 116.302 0 109.292 0H91.5C80.286 0 71.167 9.076 71.167 20.235v17.706c0 6.971 5.698 12.647 12.708 12.647h32.803c-1.825 18.86-14.046 30.353-32.803 30.353a2.537 2.537 0 0 0-2.542 2.53A2.537 2.537 0 0 0 83.875 86c22.143 0 36.798-14.524 38.039-37.289.055-.212.086-36.064.086-36.064m-5.083 32.882H83.875c-4.204 0-7.625-3.404-7.625-7.588V20.235c0-8.367 6.842-15.176 15.25-15.176h17.792c4.204 0 7.625 3.404 7.625 7.588z" opacity=".1"/></svg>