<svg xmlns="http://www.w3.org/2000/svg" width="72" height="72" fill="none"><circle cx="36" cy="36" r="36" fill="#56A063" fill-opacity=".19"/><path fill="#56A063" d="m52.37 27.882-12.75-9.978a4.25 4.25 0 0 0-5.242 0l-12.75 9.978A4.22 4.22 0 0 0 20 31.23v19.772h34V31.23a4.22 4.22 0 0 0-1.63-3.348m-1.203 20.287H22.833v-16.94a1.4 1.4 0 0 1 .544-1.116l12.75-9.977a1.42 1.42 0 0 1 1.746 0l12.75 9.977a1.4 1.4 0 0 1 .544 1.117zM37 28.344a7.082 7.082 0 0 0-4.998 12.104L37 45.335l5.01-4.899A7.084 7.084 0 0 0 37 28.344m3.016 10.078L37 41.369l-3.006-2.936a4.25 4.25 0 1 1 6.022-.011m-1.6-3.003a1.417 1.417 0 1 1-2.833 0 1.417 1.417 0 0 1 2.834 0"/></svg>