<svg xmlns="http://www.w3.org/2000/svg" width="25" height="25" fill="none"><g fill="#000" clip-path="url(#a)"><path d="M19.792 2.083H18.75V1.042a1.041 1.041 0 1 0-2.083 0v1.041H8.333V1.042a1.042 1.042 0 1 0-2.083 0v1.041H5.208A5.215 5.215 0 0 0 0 7.292v12.5A5.215 5.215 0 0 0 5.208 25h14.584A5.215 5.215 0 0 0 25 19.792v-12.5a5.215 5.215 0 0 0-5.208-5.209M2.083 7.292a3.125 3.125 0 0 1 3.125-3.125h14.584a3.125 3.125 0 0 1 3.125 3.125v1.041H2.083zm17.709 15.625H5.208a3.125 3.125 0 0 1-3.125-3.125v-9.375h20.834v9.375a3.125 3.125 0 0 1-3.125 3.125"/><path d="M12.5 17.188a1.563 1.563 0 1 0 0-3.126 1.563 1.563 0 0 0 0 3.126m-5.209 0a1.563 1.563 0 1 0 0-3.126 1.563 1.563 0 0 0 0 3.126m10.418 0a1.563 1.563 0 1 0 0-3.126 1.563 1.563 0 0 0 0 3.126"/></g><defs><clipPath id="a"><path fill="#fff" d="M0 0h25v25H0z"/></clipPath></defs></svg>