<svg xmlns="http://www.w3.org/2000/svg" width="72" height="72" fill="none"><circle cx="36" cy="36" r="36" fill="#56A063" fill-opacity=".19"/><path fill="#56A063" d="M38.31 23.338a1.336 1.336 0 0 1 1.335-1.336A13.37 13.37 0 0 1 53 35.357a1.336 1.336 0 0 1-2.671 0 10.697 10.697 0 0 0-10.684-10.684 1.335 1.335 0 0 1-1.336-1.335m1.335 6.677a5.34 5.34 0 0 1 5.342 5.342 1.336 1.336 0 0 0 2.671 0 8.02 8.02 0 0 0-8.013-8.013 1.335 1.335 0 1 0 0 2.671m12.144 14.343a4.14 4.14 0 0 1 0 5.847l-1.216 1.4C39.636 62.077 13.02 35.467 23.33 24.495l1.536-1.336a4.115 4.115 0 0 1 5.779.053c.041.041 2.516 3.256 2.516 3.256a4.14 4.14 0 0 1-.01 5.719l-1.546 1.944a17.07 17.07 0 0 0 9.256 9.276l1.957-1.556a4.14 4.14 0 0 1 5.717-.008s3.213 2.473 3.255 2.514m-1.838 1.941s-3.196-2.458-3.237-2.5a1.47 1.47 0 0 0-2.069 0c-.036.038-2.73 2.184-2.73 2.184a1.34 1.34 0 0 1-1.307.203 20.05 20.05 0 0 1-11.78-11.763 1.34 1.34 0 0 1 .193-1.336s2.146-2.695 2.182-2.73a1.47 1.47 0 0 0 0-2.068c-.041-.04-2.5-3.24-2.5-3.24a1.47 1.47 0 0 0-2.017.053l-1.535 1.335c-7.535 9.06 15.53 30.847 23.47 23.344l1.216-1.402a1.497 1.497 0 0 0 .114-2.08"/></svg>