<svg xmlns="http://www.w3.org/2000/svg" width="70" height="70" fill="none"><path fill="#000" d="M68.088 10.896h-3.793c-3.144.003-5.691 2.529-5.697 5.648v2.412H45.023v-2.749a2.67 2.67 0 0 0-2.681-2.619h-.364v-4.12a.82.82 0 0 0-.243-.58.84.84 0 0 0-.589-.24H36.43V5.271h11.956V0h-29.89v5.222H30.45v3.376h-4.664a.825.825 0 0 0-.832.821v4.117h-.214v.003c-1.482 0-2.684 1.189-2.684 2.66v2.757h-9.073c-5.83.01-10.549 4.697-10.555 10.475v12.156a2.95 2.95 0 0 0-2.416 3.168 2.965 2.965 0 0 0 2.957 2.681h12.66c1.486.037 2.775-1.016 3.014-2.47a2.95 2.95 0 0 0-2.058-3.296v-5.846h5.465v2.298a2.67 2.67 0 0 0 2.68 2.659h17.611a2.67 2.67 0 0 0 2.68-2.66v-2.297h13.585v1.918c0 3.12 2.55 5.648 5.695 5.648h3.796c.504 0 .987-.197 1.345-.552.355-.352.557-.831.557-1.331V12.764a1.904 1.904 0 0 0-1.912-1.868m-47.89-9.241h26.568v1.918H20.198zm11.956 3.573h2.606v3.376h-2.606zm-5.54 5.025H40.31v3.295l-13.694-.003zM15.63 45.812H2.96a1.3 1.3 0 0 1-1.304-1.291 1.3 1.3 0 0 1 1.305-1.294h12.67c.722 0 1.304.577 1.304 1.294 0 .713-.582 1.29-1.305 1.29m.119-11.637a.83.83 0 0 0-.832.824v6.588H4.123V29.43c.006-4.855 3.963-8.795 8.86-8.82h9.067v13.564zm27.608 3.953h-.003c-.01.55-.458.988-1.012.988h-17.61a1.006 1.006 0 0 1-1.012-1.004V16.207a1.006 1.006 0 0 1 1.011-.973h17.611c.56 0 1.012.451 1.012 1.004zm1.66-3.953V20.61h13.59v13.564zm23.304 7.331a.24.24 0 0 1-.24.229h-3.785c-2.224-.003-4.023-1.788-4.03-3.993V16.544c.007-2.205 1.806-3.99 4.03-3.993h3.795-.003a.24.24 0 0 1 .243.238zm-57.854 9.217a.836.836 0 0 0-1.295 0 38 38 0 0 1-1.046 1.245c-2.491 2.89-5.813 6.852-5.664 11.028v-.003a6.97 6.97 0 0 0 2.108 5 7.08 7.08 0 0 0 5.075 2.007h.349a7.08 7.08 0 0 0 5.066-2.004A6.97 6.97 0 0 0 17.167 63c.175-4.185-3.197-8.144-5.663-11.035-.374-.447-.723-.858-1.037-1.244m5.04 12.205h-.002a5.32 5.32 0 0 1-1.644 3.925 5.4 5.4 0 0 1-4.017 1.492h-.043a5.4 5.4 0 0 1-4.02-1.488 5.32 5.32 0 0 1-1.65-3.929c-.15-3.533 2.98-7.214 5.265-9.882l.423-.495.414.495c2.283 2.668 5.421 6.34 5.266 9.882z"/></svg>