<svg xmlns="http://www.w3.org/2000/svg" width="97" height="109" fill="none"><path fill="#000" d="M52.462 0C45.677 0 39.978 5.03 37.91 11.937h.005a.7.7 0 0 0-.07.22 20 20 0 0 0-.772 5.5c0 4.994 1.825 9.523 4.761 12.744l-5.474 4.348-.01.01c-6.038 3.837-9.204 7.679-11.362 11.977l-13.049-1.713v-.006h-.144a.8.8 0 0 0-.544.276.78.78 0 0 0-.174.586l2.598 21.059c-3.36 3.106-6.492 6.812-7.654 11.49-.363.397-3.02 3.347-4.711 6.944C.402 87.3-.227 89.414.078 91.428c.304 2.019 1.655 3.862 4.292 4.964 5.22 2.179 11.772 1.032 17.037-.571.718-.22 1.336-.456 2.004-.686l.668 13.133h-.005c.02.416.374.742.788.732l51.273-1.628a.775.775 0 0 0 .743-.767l.1-9.141c5.275-.732 10.12-3.752 14.668-8.275 5.33-5.31 6.95-14.406 3.634-24.58-3.31-10.164-11.537-21.445-26.045-31.392l-5.085-4.088c2.308-3.096 3.709-7.098 3.709-11.466 0-9.688-6.84-17.658-15.391-17.658zm0 1.548c7.603 0 13.855 7.148 13.855 16.109 0 .726-.055 1.427-.135 2.129-.219-.16-.448-.32-.703-.581-.688-.687-1.475-1.668-2.223-2.786-1.501-2.229-2.857-5.024-3.166-7.087h-.005a.767.767 0 0 0-1.47-.18c-1.143 2.81-4.812 6.827-8.701 8.34-1.945.756-3.904.921-5.704.17-1.745-.732-3.42-2.37-4.786-5.425 1.92-6.252 7.055-10.69 13.038-10.69m6.73 9.407c.6 2.129 1.487 4.398 2.788 6.332.793 1.182 1.625 2.224 2.413 3.01.523.526.997.947 1.516 1.207-1.486 7.043-6.93 12.223-13.373 12.258h-.005a.6.6 0 0 0-.13 0c-7.573-.04-13.795-7.168-13.795-16.105 0-1.072.095-2.119.264-3.13 1.346 2.328 2.972 3.811 4.752 4.563 2.238.936 4.636.706 6.84-.156 3.894-1.518 7.04-4.889 8.725-7.98zm3.975 19.366 4.322 3.471-9.428 6.913-4.118-5.485c3.585-.39 6.796-2.189 9.229-4.899zm-20.242 1.172c2.328 2.114 5.205 3.472 8.356 3.747l-2.901 6.212-10.201-6.172zm25.84 3.276c14.025 9.728 21.903 20.658 25.06 30.325 3.185 9.773 1.56 18.208-3.256 23.003-4.423 4.403-8.965 7.198-13.855 7.854h-.005a.76.76 0 0 0-1.082.105c-.952.066-1.91.056-2.892-.044-6.361-.657-13.571-5.06-21.886-14.492l.314-.777 1.51-3.757c.594.386 1.162.727 1.735 1.077v.005c.13.24.38.396.649.406 6.695 4.017 12.065 5.75 16.233 5.685 1.63-.025 3.072-.33 4.353-.826v.005a.8.8 0 0 0 .379-.14c2.338-.997 4.078-2.695 5.25-4.729v.005c.1-.18.13-.39.08-.591a.8.8 0 0 0-.36-.47.767.767 0 0 0-1.046.285c-.868 1.508-2.044 2.77-3.6 3.641l-.035-30.17a.766.766 0 1 0-1.53 0l.04 30.853a11.4 11.4 0 0 1-3.55.6c-3.784.056-8.875-1.432-15.466-5.39-1.645-12.322.095-26.468-2-39.632l3.486 4.644a.764.764 0 0 0 1.062.155zm-31.908 1.508 11.458 6.928V43.2c.189.115.408.14.618.08a.78.78 0 0 0 .468-.411l2.747-5.86c2.17 12.648.524 26.588 1.97 39.156-.439-.28-.863-.536-1.311-.837-.997-1.492-2.822-2.62-5.08-3.536-2.184-.887-4.787-1.538-7.47-1.944l-2.751-20.903.01.005a.78.78 0 0 0-.659-.661l-10.25-1.348c2-3.812 4.841-7.173 10.25-10.67zm-24.135 10.41 12.524 1.642v-.005q.059.015.124.015l10.71 1.403 2.742 20.864v.02l1.69 12.894c.005.02.005.04.01.06l1.117 8.5-23.697-3.055-.329-2.705c.095-.05.17-.08.27-.135a59 59 0 0 0 4.242-2.57c.509-.336.997-.681 1.486-1.022.07-.05.145-.09.214-.14.055-.035.1-.076.15-.11.244-.176.464-.341.698-.511a45 45 0 0 0 1.147-.872c.09-.07.199-.15.289-.22.094-.076.154-.136.244-.21.125-.106.274-.216.394-.322.125-.11.21-.205.329-.305.234-.205.484-.426.668-.626l.145-.16c.084-.1.174-.196.244-.296.13-.17.244-.346.334-.526.224-.446.31-.942.184-1.392a1.7 1.7 0 0 0-.314-.592 2.1 2.1 0 0 0-.453-.425 3.7 3.7 0 0 0-1.077-.501c-.38-.116-.768-.19-1.157-.26-.473-.086-.822-.131-1.216-.186a55 55 0 0 0 1.695-1.453h.005c.249-.23.478-.45.673-.656h.005c.194-.21.359-.4.478-.581.32-.476.539-.922.539-1.433 0-.506-.33-1.007-.718-1.247-.783-.48-1.72-.43-2.837-.306-.479.056-.997.15-1.536.266a38 38 0 0 0-1.645.416c.254-.521.653-1.212 1.236-2.054.694-.997 1.486-2.064 2.11-2.956.314-.445.583-.856.787-1.202.1-.175.19-.325.26-.49.034-.086.07-.166.094-.266.025-.095.035-.21.025-.366v-.01a3.2 3.2 0 0 0-.334-1.207v-.005a2 2 0 0 0-.334-.466q-.195-.204-.449-.34c-.668-.356-1.4-.261-2.119-.03-1.426.46-3.011 1.577-4.557 2.815h.005v.005a125 125 0 0 0-2.747 2.329zm10.734 15.212a.65.65 0 0 1 .314.05c.1.055.215.245.274.721-.03.065-.075.155-.144.276a21 21 0 0 1-.718 1.091c-.604.862-1.401 1.93-2.12 2.956-.712 1.027-1.34 1.969-1.645 2.78-.074.2-.134.396-.154.621-.02.226 0 .521.2.797.199.275.538.41.802.43.13.01.254.01.374-.01h.005c.12-.015.244-.045.364-.08a26 26 0 0 1 1.8-.466 17 17 0 0 1 1.63-.28c.479-.055.893-.05 1.207-.02h.005c.314.03.528.08.598.115-.01.055-.03.2-.23.491-.448.661-1.555 1.753-3.454 3.21-.14.106-.355.261-.4.657-.044.396.24.726.41.837.333.22.538.22.817.27.559.1 1.286.165 1.984.29.698.126 1.361.331 1.63.517.135.095.155.14.165.16.005.02.02.08-.085.285-.01.016-.06.076-.074.096-.085.125-.24.32-.509.6-.035.036-.085.08-.12.116-.289.29-.663.631-1.081.982-.145.12-.3.24-.454.365-.34.27-.713.556-1.102.842-.21.155-.414.31-.633.466-.125.09-.26.18-.389.265-2.064 1.448-4.437 2.9-6.207 3.802-.952.481-1.78.847-2.12.917-2.731.55-4.576-.105-5.723-1.388-1.137-1.277-1.6-3.31-1.191-5.71 1.066-4.493 4.242-8.165 7.692-11.306.115-.105.23-.2.345-.305a93 93 0 0 1 3.255-2.775l.01-.01c.738-.597 1.5-1.148 2.199-1.593l.005-.005c.15-.096.28-.16.419-.246.194-.115.398-.245.583-.336.314-.16.598-.29.853-.37.254-.085.463-.115.618-.125zm17.031 9.642c2.389.396 4.772.917 6.671 1.688 2.055.832 3.48 1.889 4.203 2.9l-2.019 5.02c-1.117.711-3.11 1.568-4.956 1.833-1.206.176-1.864 0-2.428-.225zM5.817 81.1c.09 1.793.653 3.4 1.72 4.603 1.536 1.723 4.054 2.49 7.165 1.864.423-.086.912-.261 1.455-.506l.34 2.755.004-.005c.04.35.314.626.659.67l10.47 1.353a55 55 0 0 1-6.661 2.51c-5.11 1.558-11.398 2.55-16.005.621-2.278-.952-3.13-2.24-3.365-3.772-.23-1.533.264-3.386 1.102-5.164.907-1.929 2.144-3.682 3.116-4.934zm43.969 1.603c8.43 9.537 15.899 14.135 22.799 14.847.967.1 1.924.115 2.862.065l-.085 8.235-49.788 1.593-.648-12.824c3.231-1.222 5.285-2.284 5.534-2.414l11.981 1.548-.005-.005a.77.77 0 0 0 .857-.862l-1.101-8.39c.683.125 1.47.15 2.418.015 1.92-.276 3.814-1.022 5.17-1.809z"/></svg>