<svg xmlns="http://www.w3.org/2000/svg" width="84" height="73" fill="none"><path fill="#56A063" d="m7.307 18.858 2.118.832v16.573c-.555.657-.91 1.489-.91 2.41 0 .893.334 1.708.865 2.359l-1.783 4.512a2.4 2.4 0 0 0 .255 2.27 2.46 2.46 0 0 0 2.04 1.068h4.84a2.43 2.43 0 0 0 2.038-1.069c.47-.684.556-1.506.256-2.27l-1.784-4.511a3.7 3.7 0 0 0 .866-2.36c0-.92-.352-1.762-.91-2.41l.003-14.004.565-.069L19 23.46v11.99c-.017 1.331.555 2.601 1.732 3.776 3.487 3.515 11.843 5.785 21.286 5.785 9.442 0 17.794-2.27 21.286-5.785 1.166-1.185 1.749-2.455 1.732-3.77L65.03 23.46l11.685-4.601c1.235-.49 2.004-1.568 2.004-2.814s-.77-2.321-2.004-2.814L44.214.426a5.96 5.96 0 0 0-4.426 0L7.308 13.224c-1.235.49-2.005 1.568-2.005 2.814 0 1.25.766 2.327 2.004 2.82m7.773 27.815a.4.4 0 0 1-.345.185h-4.84a.38.38 0 0 1-.345-.184c-.09-.124-.097-.247-.045-.387l1.607-4.067c.38.123.777.208 1.2.208a4 4 0 0 0 1.202-.208l1.607 4.067a.4.4 0 0 1-.041.386m-4.516-8a1.73 1.73 0 0 1 1.739-1.726c.962 0 1.738.77 1.738 1.726a1.73 1.73 0 0 1-1.738 1.725c-.953 0-1.74-.77-1.74-1.725m3.48-18.326c-.51.062-.9.5-.9 1.007V35.01a3.66 3.66 0 0 0-1.663 0l.004-15.286c0-.42.317-.77.731-.825l29.693-3.69a.826.826 0 0 1 .928.719.83.83 0 0 1-.169.613.87.87 0 0 1-.555.314zm47.782 17.457c-3.074 3.094-11.04 5.18-19.82 5.18-8.786 0-16.752-2.079-19.818-5.18-.77-.781-1.156-1.562-1.139-2.342V24.264l18.75 7.388a5.92 5.92 0 0 0 4.416 0l18.75-7.388v11.208c.016.774-.363 1.554-1.14 2.331M8.066 15.116 40.55 2.312a3.9 3.9 0 0 1 2.915 0l32.48 12.804c.453.174.715.517.715.92 0 .412-.266.747-.714.922l-32.484 12.81a3.9 3.9 0 0 1-2.915 0l-20.568-8.107 22.38-2.78a2.84 2.84 0 0 0 1.917-1.078c.476-.606.68-1.349.594-2.112a2.8 2.8 0 0 0-1.087-1.904 2.87 2.87 0 0 0-2.129-.589l-29.693 3.69a2.9 2.9 0 0 0-1.776.912l-2.118-.832c-.452-.175-.715-.517-.715-.921 0-.415.263-.757.715-.931M80.594 66.2l-3.905-10.096a1.02 1.02 0 0 0-.952-.647h-.18c-5.44 0-9.539-1.544-13.157-2.9-2.977-1.123-5.793-2.174-8.85-2.191h-.034c-4.364 0-9.16 2.797-11.499 6.45-2.332-3.657-7.127-6.45-11.492-6.45h-.034c-3.057.01-5.872 1.068-8.85 2.191-3.622 1.36-7.717 2.9-13.157 2.9h-.179c-.425 0-.804.263-.952.647L3.419 66.2C1.539 66.21 0 67.723 0 69.6S1.535 73 3.426 73c7.144 0 12.858-2.164 17.911-4.074 3.567-1.349 6.659-2.516 9.3-2.523h.018c2.718 0 4.954 2.26 6.051 3.612 1.28 1.585 3.119 2.461 5.175 2.478h.045c2.032 0 3.86-.859 5.147-2.42.918-1.106 3.364-3.673 6.272-3.673h.017c2.65.01 5.73 1.174 9.3 2.523 5.051 1.91 10.768 4.074 17.912 4.074 1.89 0 3.426-1.524 3.426-3.4.007-1.862-1.528-3.39-3.409-3.396zm-37.562-6.905c1.439-3.698 6.272-6.898 10.467-6.898h.028c2.684.01 5.21.955 8.135 2.06 3.674 1.377 7.807 2.938 13.361 3.023l3.34 8.634c-4.965-.393-9.335-2.05-13.258-3.533-4.002-1.516-7.79-2.944-11.737-2.954h-.034c-3.647 0-7.252 1.691-10.309 4.793l-.003-5.125zM8.995 57.48c5.547-.096 9.687-1.646 13.361-3.023 2.922-1.095 5.451-2.05 8.135-2.06h.027c4.196 0 9.035 3.197 10.468 6.898v5.268c-3.012-3.19-6.624-4.933-10.308-4.933h-.035c-3.947.01-7.728 1.438-11.736 2.955-3.912 1.482-8.283 3.129-13.248 3.533zm71.588 13.486c-6.765 0-12.302-2.095-17.176-3.934-3.602-1.359-7.004-2.646-10.026-2.657h-.017c-3.64 0-6.483 2.76-7.852 4.41a4.6 4.6 0 0 1-3.602 1.674c-1.449-.01-2.694-.606-3.595-1.718-1.324-1.63-4.07-4.372-7.648-4.372h-.017c-3.022.01-6.42 1.297-10.026 2.656-4.885 1.849-10.412 3.934-17.177 3.934a1.373 1.373 0 0 1-1.376-1.366c0-.753.617-1.366 1.376-1.366 6.272 0 11.543-2 16.208-3.76 3.992-1.506 7.438-2.813 11.012-2.82h.028c3.498 0 6.958 1.91 9.767 5.382.362.448.9.708 1.476.719h.01c.567 0 1.094-.254 1.457-.692 1.676-2.016 5.202-5.41 9.953-5.41h.028c3.577.011 7.02 1.316 11.012 2.822 4.654 1.763 9.935 3.759 16.208 3.759.759 0 1.376.613 1.376 1.366a1.406 1.406 0 0 1-1.397 1.373z"/></svg>