<svg xmlns="http://www.w3.org/2000/svg" width="90" height="90" fill="none"><circle cx="45" cy="45" r="45" fill="#91A2D9" opacity=".2"/><path fill="#91A2D9" d="M18.33 36.03 44.5 16.693 70.67 36.03v7.499H72v-8.232l-27.112-19.96L44.5 15 17 35.298v7.724h1.33z"/><path fill="#91A2D9" d="m37.237 48.322.554 1.805c.943 2.988 3.66 4.961 6.709 4.961 3.05 0 5.766-1.973 6.709-4.961l.554-1.805c.166-.45.222-.845.277-1.24.056-.338.056-.62.056-.959 0-.45-.056-.845-.111-1.296-.61-3.722-3.77-6.428-7.485-6.428s-6.875 2.706-7.485 6.428c-.055.45-.11.845-.11 1.296 0 .282 0 .62.055.959 0 .395.11.79.277 1.24m1.053-3.27c.5-3.1 3.105-5.3 6.21-5.3s5.71 2.255 6.21 5.3c.055.338.11.733.11 1.071 0 .282 0 .508-.055.79s-.11.62-.222.958l-.554 1.804c-.776 2.425-2.939 4.004-5.434 4.004s-4.657-1.635-5.433-4.004l-.554-1.804c-.111-.338-.167-.676-.222-.958-.056-.282-.056-.508-.056-.79a3.5 3.5 0 0 1 0-1.07m24.174-1.523c-3.16 0-5.822 2.312-6.376 5.469a7 7 0 0 0-.111 1.071c0 .282 0 .508.055.79.056.338.111.676.222 1.07l.499 1.523a5.9 5.9 0 0 0 5.655 4.172c2.55 0 4.88-1.691 5.656-4.172l.499-1.522c.11-.395.221-.733.221-1.071.056-.282.056-.508.056-.79 0-.338-.056-.733-.111-1.071-.388-3.157-3.105-5.47-6.265-5.47m5.156 6.597c0 .225 0 .394-.056.62-.055.225-.11.507-.166.79l-.499 1.522a4.6 4.6 0 0 1-4.435 3.27c-2.052 0-3.77-1.297-4.436-3.27l-.499-1.523a2.3 2.3 0 0 1-.166-.79c0-.225-.056-.394-.056-.62 0-.281 0-.563.056-.845a5.1 5.1 0 0 1 5.045-4.342 5.1 5.1 0 0 1 5.046 4.342c.11.225.166.564.166.846M26.536 43.53c-3.16 0-5.821 2.312-6.376 5.469-.055.338-.11.733-.11 1.071 0 .282 0 .508.055.79.055.338.11.676.222 1.07l.499 1.523a5.9 5.9 0 0 0 5.655 4.172c2.55 0 4.879-1.691 5.655-4.172l.5-1.522c.11-.395.22-.733.22-1.071.056-.282.056-.508.056-.79 0-.338-.055-.733-.11-1.071a6.316 6.316 0 0 0-6.266-5.47m5.101 6.597c0 .225 0 .394-.055.62-.056.225-.111.507-.167.79l-.499 1.522a4.6 4.6 0 0 1-4.435 3.27c-2.052 0-3.77-1.297-4.436-3.27l-.499-1.523a2.3 2.3 0 0 1-.166-.79c0-.225-.055-.394-.055-.62 0-.281 0-.563.055-.845a5.1 5.1 0 0 1 5.045-4.342 5.1 5.1 0 0 1 5.046 4.342c.11.225.166.564.166.846"/><path fill="#91A2D9" d="m68.507 57.964-2.606-.451-3.437 3.89-3.438-3.89-2.606.45.222 1.354 1.885-.338 3.937 4.454 3.936-4.454 1.885.338c1.386.226 2.384 1.466 2.384 2.876v4.567H55.811v-6.146c0-2.425-1.72-4.51-4.048-4.905l-3.05-.508-4.213 4.736-4.214-4.736-2.994.508c-2.328.394-4.047 2.48-4.047 4.905v6.09H18.331v-4.568c0-1.41.998-2.593 2.384-2.875l1.885-.339 3.936 4.455 3.937-4.455 1.885.339.222-1.354-2.606-.45-3.438 3.89-3.437-3.89-2.606.45C18.497 58.246 17 59.994 17 62.08V68h55v-5.807a4.27 4.27 0 0 0-3.493-4.23m-33.987 2.65c0-1.748 1.22-3.27 2.939-3.552l2.328-.395 4.713 5.3 4.713-5.3 2.328.395c1.72.282 2.939 1.804 2.939 3.552v6.09H34.52z"/></svg>