<svg xmlns="http://www.w3.org/2000/svg" width="30" height="30" fill="none"><path fill="#56A063" d="M30 10c0 2.06-.782 4.174-1.976 6.205a6.3 6.3 0 0 0-1.587-2.331c.656-1.328 1.063-2.64 1.063-3.874 0-3.388-2.576-6.25-5.625-6.25-2.794 0-4.385 1.131-5.457 2.117l-4.78 4.437c-.442.442-.547 1.186-.204 1.662.224.311.552.499.924.529a1.22 1.22 0 0 0 .984-.363L18.56 7.14l1.729 1.805-1.548 1.48 5.934 5.208c1.39 1.22 1.732 3.269.796 4.765a3.68 3.68 0 0 1-2.797 1.72 3.5 3.5 0 0 1-.528 1.844 3.68 3.68 0 0 1-3.273 1.73 3.5 3.5 0 0 1-.493 1.364 3.68 3.68 0 0 1-3.115 1.732 3.65 3.65 0 0 1-2.414-.91l-3.88-3.48C4.876 20.7 0 15.201 0 10c0-4.825 3.645-8.75 8.125-8.75 2.004 0 3.541.47 4.748 1.086l-2 1.855c-.762-.267-1.662-.441-2.748-.441C5.076 3.75 2.5 6.612 2.5 10c0 3.342 2.891 7.796 8.144 12.542l3.867 3.468c.247.216.588.316.925.267.343-.05.637-.244.825-.547.288-.462.145-1.146-.326-1.559l-4.009-3.811 1.72-1.815 4.653 4.392c.224.195.57.298.902.245.343-.05.636-.245.825-.547.288-.462.145-1.147-.326-1.56l-4.45-4.029 1.669-1.86 4.677 4.163a1.16 1.16 0 0 0 1.754-.277c.288-.462.145-1.147-.326-1.561l-6.098-5.351-1.837 1.758a3.72 3.72 0 0 1-2.63 1.08 3.77 3.77 0 0 1-3.056-1.572c-1.057-1.467-.843-3.584.497-4.924l4.819-4.472c1.302-1.196 3.455-2.781 7.153-2.781 4.48 0 8.125 3.925 8.125 8.75z"/></svg>