<svg xmlns="http://www.w3.org/2000/svg" width="50" height="50" fill="none"><circle cx="25" cy="25" r="25" fill="#ABBBEF"/><g clip-path="url(#a)"><path fill="#fff" d="m34.142 25.393-3.87 3.843a.675.675 0 0 1-.953-.954l7.122-7.09a1.624 1.624 0 1 0-2.298-2.298l-7.116 7.096a.675.675 0 0 1-.954 0 .673.673 0 0 1 0-.953l8.203-8.178a1.624 1.624 0 1 0-2.298-2.298l-8.197 8.182a.675.675 0 0 1-.954-.952l6.033-6.015a1.624 1.624 0 1 0-2.298-2.298L16.333 23.674v-3.09a2.166 2.166 0 1 0-4.333 0v9.474c0 2.34.911 4.54 2.566 6.196A9.37 9.37 0 0 0 21.208 39c2.405 0 4.81-.915 6.642-2.746l8.59-8.563a1.624 1.624 0 1 0-2.298-2.299Zm-12.625 8.952a1.34 1.34 0 0 1-1.703 0c-1.118-.916-2.94-2.638-2.94-4.124 0-1.131.85-2.047 1.896-2.047s1.896.73 1.896 1.86c0-1.13.849-1.86 1.895-1.86s1.896.916 1.896 2.047c0 1.486-1.822 3.208-2.94 4.124"/></g><defs><clipPath id="a"><path fill="#fff" d="M12 13h26v26H12z"/></clipPath></defs></svg>