<svg xmlns="http://www.w3.org/2000/svg" width="30" height="30" fill="none"><g clip-path="url(#a)"><path fill="#56A063" d="M9.375 16.25A5.625 5.625 0 1 1 15 10.625a5.63 5.63 0 0 1-5.625 5.625m0-8.75a3.125 3.125 0 1 0 0 6.25 3.125 3.125 0 0 0 0-6.25m9.375 21.25v-.625a9.375 9.375 0 1 0-18.75 0v.625a1.25 1.25 0 1 0 2.5 0v-.625a6.875 6.875 0 0 1 13.75 0v.625a1.25 1.25 0 0 0 2.5 0M30 22.5a8.75 8.75 0 0 0-14.584-6.521 1.25 1.25 0 1 0 1.668 1.862A6.25 6.25 0 0 1 27.5 22.5a1.25 1.25 0 0 0 2.5 0m-8.125-11.25A5.625 5.625 0 1 1 27.5 5.625a5.63 5.63 0 0 1-5.625 5.625m0-8.75a3.125 3.125 0 1 0 0 6.25 3.125 3.125 0 0 0 0-6.25"/></g><defs><clipPath id="a"><path fill="#fff" d="M0 0h30v30H0z"/></clipPath></defs></svg>