<svg xmlns="http://www.w3.org/2000/svg" width="90" height="90" fill="none"><circle cx="45" cy="45" r="45" fill="#91A2D9" opacity=".2"/><path fill="#91A2D9" d="M27.002 19.002c-2.605 0-5.002 1.934-5.002 4.626 0 .209.014.42.04.624v.08l.04 32.324c.02 2.646 2.145 4.808 4.782 4.808h5.662l.02 8.729C32.564 72.838 34.69 75 37.326 75h27.032a.64.64 0 0 0 .64-.644V41.65a.6.6 0 0 0 0-.12v-.08l-.02-.02v-.061l-.02-.04-.02-.02v-.04a.7.7 0 0 0-.1-.142v-.02l-.04-.02v-.02a.6.6 0 0 0-.14-.1l-.04-.04c-2.381-1.023-3.677-1.885-4.342-2.535l-.04-.04c-.59-.59-.677-.933-.68-1.227a1 1 0 0 0 0-.1v-.02a.6.6 0 0 0 0-.121c.023-.385.094-.81.38-1.288l.02-.02c.335-.548.975-1.182 2.361-1.79a.64.64 0 0 0 .407-.737.644.644 0 0 0-.667-.51c-2.75.01-5.082.004-7.523 0v-4.425a.6.6 0 0 0 0-.12.5.5 0 0 0-.02-.162v-.02a1 1 0 0 0-.06-.1v-.02a.64.64 0 0 0-.3-.302c-2.423-1.04-3.729-1.921-4.382-2.575-.654-.653-.692-.994-.68-1.307.016-.43.045-.92.38-1.468.334-.548.995-1.183 2.38-1.79a.64.64 0 0 0 .356-.718.644.644 0 0 0-.615-.51c-8.937.035-15.532-.036-24.47-.02zm-.04 1.288h.04c8.171-.016 14.547.035 22.35.02-.401.348-.742.706-.961 1.066-.496.81-.562 1.59-.58 2.071-.023.599.196 1.45 1.04 2.293.5.5 1.325 1.038 2.34 1.61h-24.33a3.33 3.33 0 0 1-1.72-.483c-.07-.043-.133-.093-.2-.141a4 4 0 0 1-.24-.181c-.03-.024-.052-.055-.08-.08-.025-.022-.056-.038-.08-.06-.031-.03-.05-.071-.08-.101a4 4 0 0 1-.22-.242c-.465-.547-.798-1.21-.9-1.93h-.02a3.5 3.5 0 0 1-.04-.504c0-1.904 1.717-3.32 3.681-3.338m-3.642 6.738a4.94 4.94 0 0 0 2.101 1.388c.29.104.607.161.92.2q.01.002.02 0c.166.021.33.041.501.041l-.04 31.52c-1.93-.022-3.447-1.569-3.461-3.52zm4.822 1.63h25.111v3.881c-5.064-.01-10.008-.031-15.787-.02-1.628 0-3.17.762-4.101 1.991a5 5 0 0 0-.26.383 4.3 4.3 0 0 0-.62 1.77c-.02.168-.02.327-.02.503 0 .187.018.379.04.563v.02q-.002.02 0 .04v.1l.02 22.287h-4.422zm9.324 5.169c6.009-.012 11.13.01 16.427.02q.06-.005.12-.02c1.919.002 3.763.003 5.822 0a6 6 0 0 0-.74.764H44.289a.7.7 0 0 0-.303.06.64.64 0 0 0-.369.614.65.65 0 0 0 .424.576q.121.043.248.037h14.166c-.048.17-.097.33-.12.483H39.787a.64.64 0 0 0-.574.425.647.647 0 0 0 .634.862h18.507c.041.168.096.341.18.523H44.67a.643.643 0 0 0-.72.684q.008.03.02.06a.7.7 0 0 0 .04.181.65.65 0 0 0 .66.362h14.866c.507.45 1.232.928 2.121 1.428h-24.33a3.33 3.33 0 0 1-1.96-.643c-.024-.017-.038-.043-.06-.06a4 4 0 0 1-.22-.181 4 4 0 0 1-.781-.906c-.041-.067-.083-.13-.12-.2a4 4 0 0 1-.26-.584l-.02-.06c-.055-.17-.071-.346-.1-.523-.003-.015-.018-.026-.02-.04-.002-.012.001-.007 0-.02v-.02c-.006-.042-.016-.082-.02-.121q-.02-.18-.02-.362c0-.114.008-.233.02-.342v-.02c.012-.11.036-.217.06-.322.001-.007-.002-.014 0-.02.024-.105.065-.202.1-.302.002-.006-.002-.014 0-.02a3 3 0 0 1 .28-.603c.117-.19.266-.36.42-.524.08-.084.152-.164.24-.241.164-.143.35-.269.54-.382.008-.005.012-.016.02-.02.102-.06.212-.09.32-.141.316-.15.645-.278 1-.342.238-.043.473-.06.721-.06m-3.681 6.738a4.9 4.9 0 0 0 2.34 1.448c.059.017.121.046.18.06.013.004.028-.002.04 0 .153.037.303.061.46.08q.01.002.02 0c.166.02.33.041.501.041l-.04 31.52c-1.93-.022-3.447-1.57-3.462-3.52l-.02-9.273a1 1 0 0 0 0-.1l-.02-20.095zm4.822 1.63h25.11v31.518h-25.15zm4.661 5.43a.64.64 0 0 0-.6.395.65.65 0 0 0 .353.846.6.6 0 0 0 .247.046h8.244a.64.64 0 0 0 .6-.395.647.647 0 0 0-.352-.846.6.6 0 0 0-.248-.046zm-.06 4.888a.64.64 0 0 0-.611.674.65.65 0 0 0 .424.576q.12.043.247.037h15.127a.635.635 0 0 0 .6-.395.646.646 0 0 0-.6-.892H43.208m0 4.908a.64.64 0 0 0-.611.673.65.65 0 0 0 .424.577q.12.043.247.037h15.127a.64.64 0 0 0 .6-.395.646.646 0 0 0-.6-.892z"/></svg>