<svg xmlns="http://www.w3.org/2000/svg" width="72" height="72" fill="none"><circle cx="36" cy="36" r="36" fill="#56A063" fill-opacity=".19"/><path fill="#56A063" d="M46.333 22H27.667a6.7 6.7 0 0 0-4.712 1.933A6.56 6.56 0 0 0 21 28.59v15.818a6.56 6.56 0 0 0 1.955 4.658A6.7 6.7 0 0 0 27.667 51h18.666a6.7 6.7 0 0 0 4.712-1.933A6.56 6.56 0 0 0 53 44.41V28.591a6.56 6.56 0 0 0-1.955-4.658A6.7 6.7 0 0 0 46.333 22m-18.666 2.636h18.666a4.04 4.04 0 0 1 2.239.683 3.96 3.96 0 0 1 1.468 1.805L39.83 37.22A4.03 4.03 0 0 1 37 38.375a4.03 4.03 0 0 1-2.83-1.155L23.96 27.124a3.96 3.96 0 0 1 1.468-1.805 4.03 4.03 0 0 1 2.239-.683m18.666 23.728H27.667a4.02 4.02 0 0 1-2.829-1.159 3.93 3.93 0 0 1-1.171-2.796V30.57l8.618 8.515A6.72 6.72 0 0 0 37 41.01a6.72 6.72 0 0 0 4.715-1.927l8.618-8.516V44.41a3.93 3.93 0 0 1-1.171 2.796 4.02 4.02 0 0 1-2.829 1.159"/></svg>