<svg xmlns="http://www.w3.org/2000/svg" width="332" height="292" fill="none"><path fill="#6CC47C" d="M242.053 0a88.44 88.44 0 0 0-44.156 12.613A88.55 88.55 0 0 0 166 45.677a88.55 88.55 0 0 0-31.897-33.064A88.44 88.44 0 0 0 89.947 0 94 94 0 0 0 24.9 30.233 94.18 94.18 0 0 0 .067 97.583c0 62.937 66.18 131.673 121.684 178.278A68.74 68.74 0 0 0 166 292a68.74 68.74 0 0 0 44.249-16.139c55.504-46.605 121.684-115.341 121.684-178.279a94.17 94.17 0 0 0-24.832-67.349A94 94 0 0 0 242.053 0" opacity=".5"/></svg>