<svg xmlns="http://www.w3.org/2000/svg" width="1440" height="59" fill="none"><path stroke="#A7A7A7" d="m-173 57.617 89.615-35.833a166.22 166.22 0 0 1 142.466 9.052 166.22 166.22 0 0 0 131.075 13.133l91.197-28.97a300 300 0 0 1 190.326 2.904l39.615 13.928a300 300 0 0 0 193.261 1.954l55.495-18.258a300 300 0 0 1 187.863.115l52.407 17.311a220.12 220.12 0 0 0 153.27-5.64l21.07-8.726a165.05 165.05 0 0 1 126.28-.007l9 3.727a139.45 139.45 0 0 0 99.2 2.85 139.47 139.47 0 0 1 91.64-.028L1577 51.617"/></svg>