<svg xmlns="http://www.w3.org/2000/svg" width="106" height="106" fill="none"><circle cx="53" cy="53" r="53" fill="#ABBBEF"/><path fill="#fff" d="M87.493 48.72c-.42-.321-.95-.658-1.741-.734a4.28 4.28 0 0 0-2.891.765 9 9 0 0 0-1.19.998c-.636.636-1.693 2.002-2.734 4.688-.036-.534-.033-.9-.033-.908V34.148A4.01 4.01 0 0 0 74.9 30.14c-.793 0-1.53.233-2.151.633v-.762A4 4 0 0 0 68.753 26a4.01 4.01 0 0 0-3.982 3.64 3.95 3.95 0 0 0-2.169-.645 4.01 4.01 0 0 0-4.002 4.008v3.277a3.72 3.72 0 0 0-5.051 1.232c-.07.112-.402.7-.484 1.82l-.064 1-.065-1c-.082-1.12-.41-1.708-.478-1.812a3.73 3.73 0 0 0-5.057-1.24V33a4.01 4.01 0 0 0-4.002-4.007c-.799 0-1.544.239-2.169.644A4.01 4.01 0 0 0 37.249 26a4.01 4.01 0 0 0-4.002 4.008v.762a3.97 3.97 0 0 0-2.152-.633 4.01 4.01 0 0 0-4.002 4.008v19.367c0 .014.006.382-.034.922-1.037-2.686-2.098-4.05-2.733-4.688a8.4 8.4 0 0 0-1.19-.999 4.28 4.28 0 0 0-2.888-.765c-.788.076-1.322.414-1.741.735-1.457 1.119-1.86 2.654-1.196 4.567l.4 1.148.815 2.28c.512 1.41 1.044 2.867 1.483 4.315.227.757.416 1.544.596 2.303.329 1.387.67 2.822 1.29 4.214 2.127 4.747 5.378 10.392 11.712 11.922 5.434 1.311 12.898.383 16.45-4.756a17 17 0 0 0 2.06-4.07 1.94 1.94 0 0 0 1.766 0 17 17 0 0 0 2.058 4.07c3.552 5.139 11.017 6.067 16.45 4.756 6.335-1.527 9.585-7.174 11.712-11.922.624-1.392.962-2.827 1.291-4.213.18-.76.369-1.547.596-2.304.44-1.448.97-2.905 1.483-4.314l.815-2.279.4-1.147c.669-1.916.264-3.451-1.193-4.568zM66.602 30.008c0-1.187.964-2.154 2.151-2.154s2.152.967 2.152 2.154v20.937a31 31 0 0 0-1.862-.203c-.203-2.38-1.246-4.137-2.067-5.175a9 9 0 0 0-.372-.436zm-6.151 2.993c0-1.187.964-2.155 2.151-2.155s2.152.965 2.152 2.155v10.603c-1.42-.937-2.86-1.488-4.3-1.66zm-5.541 6.466c.042-.591.18-.912.214-.982a1.88 1.88 0 0 1 1.589-.869 1.89 1.89 0 0 1 1.887 1.89v2.436a8 8 0 0 0-.613.09c-1.294.244-2.41.784-3.333 1.398zm-7.51.036c0-1.04.847-1.89 1.888-1.89.647 0 1.24.326 1.589.87.033.07.168.387.21.98l.26 3.964c-.923-.614-2.043-1.154-3.333-1.398a8 8 0 0 0-.614-.09zm-6.15-6.502c0-1.187.964-2.155 2.151-2.155s2.152.965 2.152 2.155v8.944c-1.443.168-2.88.72-4.3 1.656zm-6.154-2.993c0-1.187.965-2.154 2.151-2.154 1.187 0 2.15.967 2.15 2.154v15.123q-.195.211-.372.436c-.819 1.035-1.865 2.796-2.067 5.175q-.925.069-1.862.2zm13.44 43.648c-2.919 4.224-9.5 5.214-14.495 4.008-5.552-1.34-8.505-6.517-10.456-10.876-.552-1.232-.855-2.52-1.179-3.884-.188-.788-.38-1.603-.627-2.416-.453-1.496-.993-2.979-1.513-4.41l-.807-2.253-.4-1.15c-.396-1.148-.233-1.868.574-2.484.315-.242.523-.335.796-.363a2.46 2.46 0 0 1 1.657.445c.317.22.638.49.93.781.583.588 2.076 2.459 3.316 7.184a.92.92 0 0 0 .583.635c.087.031 8.856 3.266 10.307 9.805.11.5.605.815 1.105.706a.93.93 0 0 0 .704-1.108c-1.398-6.306-8.207-9.757-10.637-10.806.58-1.845.554-3.876.551-3.974V34.142c0-1.186.965-2.154 2.152-2.154s2.151.968 2.151 2.154v17.115q-.84.17-1.679.385a.925.925 0 0 0-.663 1.131.927.927 0 0 0 1.127.667 28.5 28.5 0 0 1 4.95-.841c.104 1.007.363 2.098.836 3.27.242.602.545 1.18.953 1.81 1.811 2.817 5.656 7.936 11.737 11.958a15.6 15.6 0 0 1-1.972 4.019m4.517-4.666a.1.1 0 0 1-.106 0c-6.63-3.94-10.756-9.405-12.626-12.314a9 9 0 0 1-.793-1.502c-1.69-4.182-.132-7.093.945-8.457.374-.472.805-.872 1.395-1.294 1.544-1.108 3.088-1.67 4.604-1.679q.601-.006 1.196.107c2.221.42 3.856 1.974 4.632 2.866a.925.925 0 0 0 1.398 0c.773-.889 2.407-2.444 4.632-2.866q.593-.11 1.195-.107c1.516.009 3.06.571 4.601 1.68.591.424 1.024.823 1.398 1.296 1.077 1.364 2.635 4.275.945 8.454-.2.492-.45.968-.793 1.5-1.867 2.91-5.993 8.375-12.622 12.315m33.888-16.313-.4 1.148-.807 2.253c-.52 1.431-1.06 2.913-1.513 4.41-.247.81-.439 1.625-.627 2.416-.323 1.364-.627 2.652-1.178 3.884-1.952 4.362-4.906 9.54-10.457 10.878-4.992 1.204-11.576.217-14.493-4.007-.835-1.207-1.48-2.526-1.968-4.017 6.083-4.024 9.922-9.14 11.736-11.958.408-.63.712-1.207.954-1.809.472-1.17.73-2.264.835-3.27 1.623.126 3.285.41 4.95.84a.928.928 0 0 0 .464-1.797q-.84-.218-1.68-.385l-.002-17.117c0-1.187.965-2.155 2.152-2.155 1.184 0 2.148.968 2.148 2.155v19.367c-.002.087-.025 2.115.552 3.96-2.43 1.046-9.24 4.5-10.637 10.806-.11.5.205.995.703 1.108a.93.93 0 0 0 1.106-.706c1.45-6.54 10.22-9.774 10.307-9.805a.93.93 0 0 0 .582-.635c1.24-4.722 2.731-6.596 3.316-7.183a6.7 6.7 0 0 1 .931-.782 2.47 2.47 0 0 1 1.66-.445c.272.028.48.121.795.363.805.616.97 1.336.57 2.483"/></svg>