<svg xmlns="http://www.w3.org/2000/svg" width="30" height="30" fill="none"><g clip-path="url(#a)"><path fill="#56A063" d="M11.206 30H5a5 5 0 0 1-5-5v-6.25a5 5 0 0 1 5-5h11.071a3.93 3.93 0 0 1 3.363 1.899l4.021-4.419a3.76 3.76 0 0 1 5.318-.25 3.78 3.78 0 0 1 .27 5.287l-8.5 9.547A12.5 12.5 0 0 1 11.207 30M5 16.25a2.5 2.5 0 0 0-2.5 2.5V25A2.5 2.5 0 0 0 5 27.5h6.206a10 10 0 0 0 7.465-3.347l8.506-9.548a1.27 1.27 0 0 0-.09-1.776 1.3 1.3 0 0 0-.91-.329 1.25 1.25 0 0 0-.875.411L19.77 19a3.95 3.95 0 0 1-3.145 2.565l-6.451.922a1.25 1.25 0 0 1-.355-2.474l6.452-.922a1.428 1.428 0 0 0-.2-2.841zm8.75-4.908a2.48 2.48 0 0 1-1.559-.545C10.051 9.08 7.5 6.5 7.5 4a3.886 3.886 0 0 1 3.75-4 3.6 3.6 0 0 1 2.5 1.021A3.6 3.6 0 0 1 16.25 0 3.886 3.886 0 0 1 20 4c0 2.5-2.551 5.08-4.693 6.799a2.48 2.48 0 0 1-1.557.543M11.25 2.5A1.394 1.394 0 0 0 10 4c0 1.125 1.439 2.988 3.758 4.849C16.06 6.987 17.5 5.125 17.5 4a1.394 1.394 0 0 0-1.25-1.5A1.394 1.394 0 0 0 15 4a1.25 1.25 0 0 1-2.5 0 1.394 1.394 0 0 0-1.25-1.5"/></g><defs><clipPath id="a"><path fill="#fff" d="M0 0h30v30H0z"/></clipPath></defs></svg>