<svg xmlns="http://www.w3.org/2000/svg" width="168" height="39" fill="none" viewBox="0 0 168 39"><path fill="url(#a)" d="M15.066 0c-3.241 0-5.885 2.637-6.02 5.865-.154 3.635 2.931 6.607 6.536 6.3 3.087-.263 5.51-2.866 5.51-6.038C21.093 2.78 18.396 0 15.067 0m4.49 20.803c-2.617 0-3.513 3.141-3.522 3.173-.002.01-.013.014-.015.023a1 1 0 0 1-.95.715h-.004c-.448 0-.842-.3-.966-.734-.036-.13-.93-3.177-3.523-3.177-1.988 0-3.487 1.672-3.487 3.892 0 2.64 2.369 5.292 6.294 8.624q.503.425 1.033.878a1 1 0 0 0 1.3 0l1.03-.877c2.987-2.533 6.298-5.79 6.298-8.625 0-2.22-1.5-3.892-3.487-3.892m1.293-8.465a1.45 1.45 0 0 0-1.1.267 7.76 7.76 0 0 1-4.683 1.566 7.77 7.77 0 0 1-4.682-1.566 1.45 1.45 0 0 0-1.1-.267C3.983 13.195 0 17.798 0 23.328v1.414c0 3.27 1.265 6.34 3.553 8.642l.003.006c0 .016 0 .017.016.017q.004 0 .006.002a3.48 3.48 0 0 0 2.368 1.008l.079-.003c1.907-.099 2.872-2.374 1.645-3.846-1.42-1.706-2.59-3.716-2.59-5.873 0-3.45 2.621-5.912 5.486-5.912h.01c1.651 0 3.066.798 4.078 2.02a.536.536 0 0 0 .826-.002c1.01-1.23 2.396-2.018 4.077-2.018h.009c3.043 0 5.486 2.624 5.487 5.91v.003c-.085.236.31 2.284-2.636 5.87-1.18 1.436-.32 3.632 1.522 3.834q.123.014.247.017a3.48 3.48 0 0 0 2.374-1.01c.016 0 .017-.001.017-.017q0-.003.002-.005a12.18 12.18 0 0 0 3.553-8.643v-1.414c0-5.53-3.984-10.133-9.283-10.99"/><text x="42" y="29" fill="#fff" font-family="Poppins,'Segoe UI',Helvetica,Arial,sans-serif" font-size="26" font-weight="600" letter-spacing="-1">Bestow</text><defs><linearGradient id="a" x1="3.268" x2="26.994" y1="33.113" y2="9.517" gradientUnits="userSpaceOnUse"><stop stop-color="#56A063"/><stop offset="1" stop-color="#529B5F"/></linearGradient></defs></svg>