<svg xmlns="http://www.w3.org/2000/svg" width="168" height="39" fill="none"><path fill="url(#a)" d="M15.066 0c-3.241 0-5.885 2.637-6.02 5.865-.154 3.635 2.931 6.607 6.536 6.3 3.087-.263 5.51-2.866 5.51-6.038C21.093 2.78 18.396 0 15.067 0m4.49 20.803c-2.617 0-3.513 3.141-3.522 3.173-.002.01-.013.014-.015.023a1 1 0 0 1-.95.715h-.004c-.448 0-.842-.3-.966-.734-.036-.13-.93-3.177-3.523-3.177-1.988 0-3.487 1.672-3.487 3.892 0 2.64 2.369 5.292 6.294 8.624q.503.425 1.033.878a1 1 0 0 0 1.3 0l1.03-.877c2.987-2.533 6.298-5.79 6.298-8.625 0-2.22-1.5-3.892-3.487-3.892m1.293-8.465a1.45 1.45 0 0 0-1.1.267 7.76 7.76 0 0 1-4.683 1.566 7.77 7.77 0 0 1-4.682-1.566 1.45 1.45 0 0 0-1.1-.267C3.983 13.195 0 17.798 0 23.328v1.414c0 3.27 1.265 6.34 3.553 8.642l.003.006c0 .016 0 .017.016.017q.004 0 .006.002a3.48 3.48 0 0 0 2.368 1.008l.079-.003c1.907-.099 2.872-2.374 1.645-3.846-1.42-1.706-2.59-3.716-2.59-5.873 0-3.45 2.621-5.912 5.486-5.912h.01c1.651 0 3.066.798 4.078 2.02a.536.536 0 0 0 .826-.002c1.01-1.23 2.396-2.018 4.077-2.018h.009c3.043 0 5.486 2.624 5.487 5.91v.003c-.085.236.31 2.284-2.636 5.87-1.18 1.436-.32 3.632 1.522 3.834q.123.014.247.017a3.48 3.48 0 0 0 2.374-1.01c.016 0 .017-.001.017-.017q0-.003.002-.005a12.18 12.18 0 0 0 3.553-8.643v-1.414c0-5.53-3.984-10.133-9.283-10.99"/><path fill="#fff" d="M45.802 31V6.343h3.788V31zm14.911 0-8.747-12.5 2.583-2.928 10.779 15.221V31zM47.73 25.938l.035-5.338L59.852 6.343h4.684v.207zM67.781 31V13.437h3.72V31zm1.86-20.146a2.5 2.5 0 0 1-1.79-.723 2.5 2.5 0 0 1-.724-1.79q0-1.068.723-1.757a2.5 2.5 0 0 1 1.79-.723q1.07 0 1.792.723.723.69.723 1.756 0 1.034-.723 1.791-.725.723-1.791.723M75.819 31V13.437h3.513v2.41h.206q.757-1.273 2.239-2.1a6.6 6.6 0 0 1 3.305-.86q3.238 0 4.856 1.928 1.62 1.893 1.619 5.096V31h-3.685V20.393q0-2.134-1.068-3.099-1.067-.999-2.79-.999-1.342 0-2.34.758-1 .723-1.585 1.928a6.1 6.1 0 0 0-.55 2.583V31zm27.416.551q-2.376 0-4.305-1.205-1.927-1.206-3.03-3.306t-1.102-4.821q0-2.72 1.102-4.822 1.103-2.1 3.03-3.306 1.929-1.205 4.305-1.205 1.377 0 2.48.413a6.2 6.2 0 0 1 1.894 1.102q.826.655 1.274 1.412h.206l-.206-2.445V6.343h3.685V31h-3.479v-2.342h-.206q-.448.723-1.274 1.412-.793.654-1.894 1.068-1.103.413-2.48.413m.551-3.41q1.377 0 2.583-.722a5.23 5.23 0 0 0 1.963-2.032q.757-1.344.757-3.169t-.757-3.133q-.724-1.343-1.963-2.067a4.94 4.94 0 0 0-2.583-.723q-1.377 0-2.583.723-1.204.724-1.963 2.067-.757 1.309-.757 3.133 0 1.791.757 3.134.759 1.343 1.963 2.067a4.94 4.94 0 0 0 2.583.723m21.119 3.41q-2.583 0-4.615-1.205a8.7 8.7 0 0 1-3.202-3.306q-1.137-2.1-1.137-4.787 0-2.514 1.102-4.649t3.065-3.41q1.998-1.308 4.58-1.308 2.72 0 4.615 1.171a7.6 7.6 0 0 1 2.927 3.203q.999 2.03.999 4.58 0 .378-.035.689 0 .31-.034.482h-15.118v-2.79h11.502a4 4 0 0 0-.344-1.377 4.5 4.5 0 0 0-.896-1.378q-.585-.62-1.481-.998-.895-.414-2.1-.414-1.516 0-2.686.792-1.171.757-1.826 2.136-.654 1.377-.654 3.202 0 1.998.758 3.34.758 1.344 1.997 2.032 1.24.69 2.686.689 1.757 0 2.927-.792a6.1 6.1 0 0 0 1.894-2.032l3.065 1.481a9.5 9.5 0 0 1-3.099 3.375q-1.963 1.274-4.89 1.274M136.588 31V13.437h3.513v2.583h.206a4.9 4.9 0 0 1 1.171-1.584 6.5 6.5 0 0 1 1.791-1.102 5.7 5.7 0 0 1 2.135-.413q.723 0 1.205.103.518.069.93.24v3.858a9 9 0 0 0-1.343-.448 5.4 5.4 0 0 0-1.377-.172q-1.309 0-2.342.723-.999.69-1.584 1.86t-.586 2.617V31zm18.661.551q-1.929 0-3.375-.758a6.1 6.1 0 0 1-2.307-2.066q-.827-1.343-.827-3.065 0-1.894.965-3.202.999-1.31 2.617-1.998 1.653-.689 3.65-.689 1.137 0 2.066.173.93.137 1.653.344.724.207 1.137.448v-.93q0-1.722-1.24-2.755t-3.202-1.033a5.5 5.5 0 0 0-2.549.62q-1.205.585-1.963 1.618l-2.514-1.963a7.7 7.7 0 0 1 1.826-1.825 8.9 8.9 0 0 1 2.445-1.17 9.7 9.7 0 0 1 2.858-.414q3.788 0 5.854 1.894 2.066 1.86 2.066 5.235V31h-3.581v-2.17h-.207q-.482.69-1.274 1.31a6.1 6.1 0 0 1-1.791.998q-1.032.413-2.307.413m.654-3.03q1.447 0 2.549-.69a4.96 4.96 0 0 0 1.722-1.79 4.8 4.8 0 0 0 .654-2.445 7.7 7.7 0 0 0-1.86-.723 8.2 8.2 0 0 0-2.307-.31q-2.238 0-3.203.895t-.964 2.239q0 1.239.895 2.032.93.79 2.514.791"/><defs><linearGradient id="a" x1="3.268" x2="26.994" y1="33.113" y2="9.517" gradientUnits="userSpaceOnUse"><stop stop-color="#56A063"/><stop offset="1" stop-color="#529B5F"/></linearGradient></defs></svg>