<svg xmlns="http://www.w3.org/2000/svg" width="90" height="90" fill="none"><circle cx="45" cy="45" r="45" fill="#91A2D9" opacity=".2"/><path fill="#91A2D9" fill-rule="evenodd" d="M27.028 30.9a3.12 3.12 0 0 0 2.226-.936c.57-.58.92-1.377.92-2.261 0-.881-.352-1.682-.92-2.261a3.12 3.12 0 0 0-4.452 0 3.22 3.22 0 0 0-.921 2.261c0 .884.353 1.682.92 2.261.571.577 1.36.936 2.227.936m18.662 8.65a.713.713 0 0 1-.708-.72c0-.397.317-.719.708-.719h10.95c.392 0 .709.322.709.72s-.317.719-.708.719zm3.664-4.515a.713.713 0 0 1-.708-.72c0-.398.317-.72.708-.72h7.287c.391 0 .708.322.708.72s-.317.72-.708.72zm-5.145-4.513a.713.713 0 0 1-.708-.72c0-.397.316-.719.708-.719H56.64c.392 0 .708.322.708.72s-.316.719-.708.719zm0-4.515a.713.713 0 0 1-.708-.72c0-.397.316-.72.708-.72H56.64c.392 0 .708.323.708.72 0 .398-.316.72-.708.72zm15.854 42.215v1.059a.713.713 0 0 1-.708.719h-13.02a.713.713 0 0 1-.707-.72v-1.058H34.397a.713.713 0 0 1-.708-.719v-2.418c0-2.736 1.271-4.668 3.062-5.797a7.7 7.7 0 0 1 3.258-1.11 8.2 8.2 0 0 1 3.424.351c1.73.567 3.239 1.733 4.05 3.499a6.9 6.9 0 0 1 2.447-1.586 8.1 8.1 0 0 1 2.914-.538c.996 0 1.992.18 2.915.538a6.9 6.9 0 0 1 2.446 1.586c.814-1.766 2.32-2.932 4.05-3.499a8.2 8.2 0 0 1 3.425-.351 7.7 7.7 0 0 1 3.258 1.11c1.79 1.13 3.062 3.064 3.062 5.797v2.418c0 .398-.317.72-.708.72zM45.63 66.784c.012-1.331.324-2.468.848-3.413-.52-1.795-1.875-2.954-3.475-3.48a6.8 6.8 0 0 0-2.845-.29c-.95.104-1.87.406-2.66.904-1.4.884-2.393 2.409-2.393 4.58v1.699zm13.582-3.413c.527.945.84 2.082.849 3.413h10.525v-1.7c0-2.17-.993-3.697-2.392-4.579a6.3 6.3 0 0 0-2.661-.903 6.8 6.8 0 0 0-2.845.29c-1.6.525-2.956 1.686-3.476 3.479m-.565 5.19v-1.699c0-2.647-1.486-4.34-3.39-5.08a6.7 6.7 0 0 0-2.413-.442c-.829 0-1.653.148-2.412.442-1.904.74-3.39 2.433-3.39 5.08v1.7zm-5.8-10.594c.785 0 1.493-.322 2.008-.845a2.9 2.9 0 0 0 .831-2.04c0-.798-.316-1.517-.831-2.04a2.8 2.8 0 0 0-2.008-.845c-.786 0-1.494.322-2.009.845a2.9 2.9 0 0 0-.831 2.04c0 .798.316 1.517.831 2.04a2.8 2.8 0 0 0 2.009.845m3.008.172a4.34 4.34 0 0 0 1.248-3.057 4.34 4.34 0 0 0-1.248-3.057 4.21 4.21 0 0 0-6.017 0 4.34 4.34 0 0 0-1.247 3.057c0 1.193.476 2.274 1.247 3.057a4.22 4.22 0 0 0 3.009 1.267 4.23 4.23 0 0 0 3.008-1.267m-14.947-1.947c.785 0 1.493-.322 2.008-.845a2.9 2.9 0 0 0 .831-2.04c0-.798-.316-1.518-.831-2.04a2.8 2.8 0 0 0-2.008-.845c-.786 0-1.494.322-2.009.845a2.9 2.9 0 0 0-.831 2.04c0 .798.316 1.517.831 2.04.513.52 1.223.845 2.009.845m3.009.17a4.21 4.21 0 0 1-6.018 0 4.34 4.34 0 0 1-1.247-3.058c0-1.193.476-2.273 1.247-3.056a4.206 4.206 0 0 1 6.018 0 4.34 4.34 0 0 1 1.247 3.056 4.36 4.36 0 0 1-1.247 3.057m20.868-.17c.786 0 1.494-.322 2.009-.845a2.9 2.9 0 0 0 .831-2.04c0-.798-.316-1.518-.831-2.04a2.806 2.806 0 0 0-4.017 0 2.9 2.9 0 0 0-.831 2.04c0 .798.316 1.517.831 2.04a2.8 2.8 0 0 0 2.008.845m3.01.17a4.21 4.21 0 0 1-6.019 0 4.34 4.34 0 0 1-1.247-3.058c0-1.193.477-2.273 1.247-3.056a4.204 4.204 0 0 1 6.018 0 4.34 4.34 0 0 1 1.247 3.056 4.36 4.36 0 0 1-1.247 3.057M42.393 37.41c-.617-.27-1.429-.32-2.371-.017l-4.957 1.588c-.37-1.335-.815-2.376-1.41-3.228-.717-1.034-1.63-1.773-2.858-2.407l-.078-.034c-1.6-.59-3.183-.73-4.705-.457-1.552.278-3.033.982-4.408 2.075-2.598 2.067-3.88 4.191-5.416 6.737a90 90 0 0 1-1.306 2.12q-.017.022-.031.046c-.95 1.52-1.022 2.725-.63 3.545.19.4.485.705.845.911.338.197.735.3 1.15.315 1.044.031 2.255-.533 2.978-1.734l2.209-3.67v5.462c0 .398.317.72.708.72h10.313a.713.713 0 0 0 .708-.72l-.003-4.164c1.685-.125 4.45-1.053 6.76-1.829.455-.152.897-.302 1.008-.336 1.627-.538 2.48-1.495 2.721-2.419a2.15 2.15 0 0 0-.007-1.149 2 2 0 0 0-.162-.4l4.737-5.269a.726.726 0 0 0-.046-1.014.7.7 0 0 0-.998.047zm-3.478 6.621v2.124c0 .398.316.72.708.72h21.604a.713.713 0 0 0 .708-.72l-.003-26.438a.713.713 0 0 0-.708-.719l-21.604.003a.713.713 0 0 0-.708.719v16.546c0 .398.317.72.708.72a.713.713 0 0 0 .709-.72v-15.83h20.19V45.44H40.33v-1.407a.713.713 0 0 0-.709-.72.716.716 0 0 0-.705.72M22.82 47.95v-7.295a.713.713 0 0 0-.709-.719.71.71 0 0 0-.628.388l-3.492 5.802c-.435.724-1.139 1.065-1.735 1.048a1.05 1.05 0 0 1-.494-.127.66.66 0 0 1-.27-.29c-.196-.41-.092-1.117.553-2.154l.022-.034c.493-.77.918-1.478 1.327-2.153 1.464-2.428 2.685-4.451 5.08-6.354 1.187-.945 2.46-1.552 3.785-1.788 1.27-.228 2.595-.113 3.939.376 1 .52 1.738 1.117 2.303 1.932.592.852 1.023 1.962 1.385 3.484a.703.703 0 0 0 .85.528l.047-.012v.002l5.665-1.814c.768-.245 1.329-.152 1.621.113a.6.6 0 0 1 .186.287.7.7 0 0 1-.002.386c-.13.503-.684 1.053-1.793 1.419l-1.013.336c-2.593.872-5.798 1.947-6.864 1.77l-.055-.012q-.009-.003-.015-.002l-.034-.008v-.002a2.06 2.06 0 0 1-.93-.427 1.7 1.7 0 0 1-.534-.742l-.457-1.284a.703.703 0 0 0-.901-.432.72.72 0 0 0-.426.916l.457 1.284c.196.552.539 1.019.974 1.377.31.253.667.452 1.054.585v3.619zm7.434-16.971a4.51 4.51 0 0 1-6.453 0 4.66 4.66 0 0 1-1.336-3.278c0-1.279.51-2.438 1.336-3.278a4.513 4.513 0 0 1 6.453 0 4.66 4.66 0 0 1 1.336 3.278c0 1.282-.51 2.44-1.336 3.278" clip-rule="evenodd"/></svg>