<svg xmlns="http://www.w3.org/2000/svg" width="155" height="36" fill="none" viewBox="0 0 155 36"><path fill="url(#a)" d="M14 0c-3.012 0-5.468 2.45-5.595 5.45-.142 3.378 2.725 6.14 6.075 5.854 2.868-.245 5.12-2.663 5.12-5.61C19.6 2.584 17.093 0 14 0m4.173 19.33c-2.433 0-3.265 2.92-3.273 2.949-.003.009-.012.013-.015.022a.93.93 0 0 1-.882.664h-.004a.94.94 0 0 1-.898-.682c-.034-.121-.864-2.953-3.274-2.953-1.847 0-3.24 1.555-3.24 3.617 0 2.454 2.201 4.918 5.849 8.014q.467.395.96.816a.93.93 0 0 0 1.207 0l.958-.815c2.775-2.354 5.852-5.38 5.852-8.015 0-2.062-1.393-3.616-3.24-3.616m1.2-7.865a1.35 1.35 0 0 0-1.022.248A7.2 7.2 0 0 1 14 13.168a7.2 7.2 0 0 1-4.35-1.455 1.35 1.35 0 0 0-1.024-.248C3.702 12.261 0 16.539 0 21.677v1.314a11.32 11.32 0 0 0 3.304 8.036c0 .015.001.016.015.016l.006.002c.578.58 1.38.918 2.2.936q.037 0 .073-.003c1.772-.091 2.669-2.206 1.53-3.573-1.321-1.585-2.408-3.453-2.408-5.458 0-3.206 2.436-5.494 5.099-5.494h.008c1.535 0 2.85.742 3.79 1.877.199.24.569.24.767-.001.94-1.143 2.227-1.876 3.789-1.876h.008c2.828 0 5.098 2.44 5.099 5.493v.002c-.079.22.288 2.122-2.449 5.454-1.097 1.335-.298 3.376 1.414 3.564q.113.012.23.015a3.23 3.23 0 0 0 2.206-.938c.014 0 .015-.001.015-.016q0-.003.002-.005A11.32 11.32 0 0 0 28 22.99v-1.314c0-5.138-3.703-9.416-8.626-10.212"/><text x="39" y="27" fill="#3D3D3D" font-family="Poppins,'Segoe UI',Helvetica,Arial,sans-serif" font-size="24" font-weight="600" letter-spacing="-1">Bestow</text><defs><linearGradient id="a" x1="3.037" x2="25.084" y1="30.77" y2="8.844" gradientUnits="userSpaceOnUse"><stop stop-color="#56A063"/><stop offset="1" stop-color="#529B5F"/></linearGradient></defs></svg>