<svg xmlns="http://www.w3.org/2000/svg" width="155" height="36" fill="none"><path fill="url(#a)" d="M14 0c-3.012 0-5.468 2.45-5.595 5.45-.142 3.378 2.725 6.14 6.075 5.854 2.868-.245 5.12-2.663 5.12-5.61C19.6 2.584 17.093 0 14 0m4.173 19.33c-2.433 0-3.265 2.92-3.273 2.949-.003.009-.012.013-.015.022a.93.93 0 0 1-.882.664h-.004a.94.94 0 0 1-.898-.682c-.034-.121-.864-2.953-3.274-2.953-1.847 0-3.24 1.555-3.24 3.617 0 2.454 2.201 4.918 5.849 8.014q.467.395.96.816a.93.93 0 0 0 1.207 0l.958-.815c2.775-2.354 5.852-5.38 5.852-8.015 0-2.062-1.393-3.616-3.24-3.616m1.2-7.865a1.35 1.35 0 0 0-1.022.248A7.2 7.2 0 0 1 14 13.168a7.2 7.2 0 0 1-4.35-1.455 1.35 1.35 0 0 0-1.024-.248C3.702 12.261 0 16.539 0 21.677v1.314a11.32 11.32 0 0 0 3.304 8.036c0 .015.001.016.015.016l.006.002c.578.58 1.38.918 2.2.936q.037 0 .073-.003c1.772-.091 2.669-2.206 1.53-3.573-1.321-1.585-2.408-3.453-2.408-5.458 0-3.206 2.436-5.494 5.099-5.494h.008c1.535 0 2.85.742 3.79 1.877.199.24.569.24.767-.001.94-1.143 2.227-1.876 3.789-1.876h.008c2.828 0 5.098 2.44 5.099 5.493v.002c-.079.22.288 2.122-2.449 5.454-1.097 1.335-.298 3.376 1.414 3.564q.113.012.23.015a3.23 3.23 0 0 0 2.206-.938c.014 0 .015-.001.015-.016q0-.003.002-.005A11.32 11.32 0 0 0 28 22.99v-1.314c0-5.138-3.703-9.416-8.626-10.212"/><path fill="#3D3D3D" d="M42.56 29V6.088h3.52V29zm13.856 0-8.128-11.616 2.4-2.72 10.016 14.144V29zm-12.064-4.704.032-4.96L55.616 6.088h4.352v.192zM62.984 29V12.68h3.456V29zm1.728-18.72a2.33 2.33 0 0 1-1.664-.672 2.33 2.33 0 0 1-.672-1.664q0-.992.672-1.632a2.33 2.33 0 0 1 1.664-.672q.992 0 1.664.672.672.64.672 1.632a2.33 2.33 0 0 1-.672 1.664q-.672.672-1.664.672M70.452 29V12.68h3.265v2.24h.192q.704-1.185 2.08-1.952a6.1 6.1 0 0 1 3.072-.8q3.008 0 4.512 1.792 1.504 1.76 1.504 4.736V29h-3.424v-9.856q0-1.985-.992-2.88-.993-.928-2.592-.928-1.249 0-2.176.704-.929.672-1.472 1.792a5.7 5.7 0 0 0-.512 2.4V29zm25.477.512q-2.208 0-4-1.12-1.793-1.12-2.816-3.072-1.024-1.952-1.024-4.48t1.024-4.48 2.816-3.072 4-1.12q1.28 0 2.304.384t1.76 1.024q.768.608 1.184 1.312h.192l-.192-2.272V6.088h3.424V29h-3.232v-2.176h-.192q-.416.672-1.184 1.312a6.1 6.1 0 0 1-1.76.992q-1.024.384-2.304.384m.512-3.168q1.28 0 2.4-.672a4.86 4.86 0 0 0 1.824-1.888q.704-1.248.704-2.944t-.704-2.912q-.672-1.248-1.824-1.92a4.6 4.6 0 0 0-2.4-.672q-1.281 0-2.4.672-1.12.672-1.824 1.92-.704 1.215-.704 2.912 0 1.665.704 2.912.704 1.248 1.824 1.92a4.6 4.6 0 0 0 2.4.672m19.624 3.168q-2.4 0-4.288-1.12a8.07 8.07 0 0 1-2.976-3.072q-1.056-1.952-1.056-4.448 0-2.335 1.024-4.32a8.2 8.2 0 0 1 2.848-3.168q1.856-1.215 4.256-1.216 2.528 0 4.288 1.088a7.05 7.05 0 0 1 2.72 2.976q.928 1.888.928 4.256 0 .352-.032.64 0 .288-.032.448h-14.048v-2.592h10.688a3.8 3.8 0 0 0-.32-1.28 4.1 4.1 0 0 0-.832-1.28 4 4 0 0 0-1.376-.928q-.832-.384-1.952-.384-1.409 0-2.496.736-1.088.704-1.696 1.984t-.608 2.976q0 1.856.704 3.104t1.856 1.888 2.496.64q1.632 0 2.72-.736a5.7 5.7 0 0 0 1.76-1.888l2.848 1.376a8.8 8.8 0 0 1-2.88 3.136q-1.824 1.185-4.544 1.184M126.922 29V12.68h3.264v2.4h.192a4.55 4.55 0 0 1 1.088-1.472 6 6 0 0 1 1.664-1.024 5.3 5.3 0 0 1 1.984-.384q.672 0 1.12.096.48.064.864.224v3.584a8.6 8.6 0 0 0-1.248-.416 5 5 0 0 0-1.28-.16q-1.216 0-2.176.672-.929.64-1.472 1.728-.544 1.088-.544 2.432V29zm17.34.512q-1.792 0-3.136-.704a5.65 5.65 0 0 1-2.144-1.92q-.768-1.248-.768-2.848 0-1.76.896-2.976.927-1.216 2.432-1.856 1.535-.64 3.392-.64 1.056 0 1.92.16.864.128 1.536.32t1.056.416V18.6q0-1.6-1.152-2.56t-2.976-.96q-1.249 0-2.368.576a4.84 4.84 0 0 0-1.824 1.504l-2.336-1.824a7.1 7.1 0 0 1 1.696-1.696 8.3 8.3 0 0 1 2.272-1.088 9 9 0 0 1 2.656-.384q3.52 0 5.44 1.76 1.92 1.728 1.92 4.864V29h-3.328v-2.016h-.192a5.8 5.8 0 0 1-1.184 1.216 5.7 5.7 0 0 1-1.664.928q-.96.384-2.144.384m.608-2.816q1.344 0 2.368-.64a4.6 4.6 0 0 0 1.6-1.664 4.5 4.5 0 0 0 .608-2.272 7 7 0 0 0-1.728-.672 7.7 7.7 0 0 0-2.144-.288q-2.08 0-2.976.832-.897.832-.896 2.08 0 1.152.832 1.888.863.736 2.336.736"/><defs><linearGradient id="a" x1="3.037" x2="25.084" y1="30.77" y2="8.844" gradientUnits="userSpaceOnUse"><stop stop-color="#56A063"/><stop offset="1" stop-color="#529B5F"/></linearGradient></defs></svg>