<svg xmlns="http://www.w3.org/2000/svg" width="106" height="106" fill="none"><circle cx="53" cy="53" r="53" fill="#ABBBEF"/><path fill="#fff" d="M53 46.386c3.221 0 6.125-1.997 7.359-5.06 1.232-3.06.548-6.585-1.73-8.928-2.28-2.343-5.705-3.042-8.68-1.772-2.978 1.27-4.917 4.259-4.914 7.573.006 4.522 3.569 8.185 7.965 8.187m0-14.554c2.505 0 4.766 1.554 5.724 3.937.958 2.38.429 5.124-1.344 6.945s-4.44 2.367-6.754 1.379c-2.317-.99-3.825-3.314-3.823-5.894.005-3.518 2.777-6.37 6.197-6.375zm-7.57 30.74V75.09c0 .502-.395.91-.883.91a.9.9 0 0 1-.884-.91V62.573c0-.502.396-.91.884-.91s.884.408.884.91m16.907 0V75.09c0 .502-.396.91-.884.91a.9.9 0 0 1-.884-.91V62.573c0-.502.396-.91.884-.91s.884.408.884.91m-25.136-13.48c2.699-.003 5.13-1.678 6.162-4.243 1.03-2.566.458-5.517-1.45-7.479-1.91-1.961-4.779-2.549-7.272-1.485-2.494 1.061-4.117 3.565-4.117 6.341.006 3.79 2.993 6.86 6.677 6.866m0-11.912c1.983.003 3.77 1.235 4.527 3.12s.336 4.053-1.066 5.496c-1.404 1.44-3.511 1.872-5.344 1.09-1.833-.78-3.026-2.62-3.026-4.66.002-2.788 2.2-5.046 4.91-5.046M31.19 62.16v10.248c0 .502-.396.91-.884.91a.897.897 0 0 1-.884-.91V62.16c0-.502.396-.91.884-.91s.884.408.884.91M68.8 49.09c2.698 0 5.132-1.672 6.164-4.237 1.034-2.566.462-5.517-1.447-7.481-1.908-1.964-4.778-2.551-7.271-1.488-2.494 1.062-4.12 3.565-4.12 6.342.007 3.788 2.99 6.858 6.673 6.865m0-11.91c1.982 0 3.771 1.23 4.531 3.115.758 1.886.338 4.055-1.064 5.498a4.81 4.81 0 0 1-5.344 1.095c-1.833-.782-3.028-2.623-3.028-4.662.002-2.786 2.197-5.044 4.904-5.046M81 58.405V71.56c0 .502-.396.91-.884.91a.897.897 0 0 1-.884-.91V58.393c-.003-3.776-2.978-6.836-6.65-6.841h-7.033a10.5 10.5 0 0 1 2.188 6.417v16.1c0 .504-.396.91-.884.91a.896.896 0 0 1-.885-.91v-16.1c-.007-4.738-3.742-8.573-8.347-8.57h-9.243c-4.605-.003-8.34 3.832-8.347 8.57v16.1c0 .504-.396.91-.884.91a.896.896 0 0 1-.884-.91v-16.1a10.5 10.5 0 0 1 2.169-6.417h-7.014c-3.672.005-6.647 3.065-6.65 6.841V71.56c0 .502-.396.91-.884.91a.9.9 0 0 1-.884-.91V58.393c.007-4.78 3.772-8.654 8.418-8.66h8.843a9.85 9.85 0 0 1 6.136-2.154h9.224c2.222 0 4.38.756 6.137 2.154H72.6c4.64.016 8.393 3.887 8.4 8.66zm-4.421 3.755v10.248c0 .502-.396.91-.884.91a.897.897 0 0 1-.884-.91V62.16c0-.502.395-.91.884-.91.488 0 .884.408.884.91"/></svg>